<svg width="18" height="18" viewBox="0 0 18 18" fill="none" xmlns="http://www.w3.org/2000/svg">
<g clip-path="url(#clip0_379_11463)">
<path d="M11.31 9.00005C11.31 8.61005 10.99 8.29005 10.6 8.29005H4.06V6.80005L0 9.00005L4.06 11.2V9.71005H10.6C10.99 9.71005 11.31 9.39005 11.31 9.00005Z" fill="currentColor"/>
<path d="M7.04004 18H15.84C16.8 18 17.59 17.22 17.59 16.25V1.75C17.59 0.79 16.81 0 15.84 0H7.04004C6.08004 0 5.29004 0.78 5.29004 1.75V6.04C5.29004 6.39 5.57004 6.67 5.92004 6.67C6.27004 6.67 6.55004 6.39 6.55004 6.04V1.75C6.55004 1.48 6.77004 1.26 7.04004 1.26H15.84C16.11 1.26 16.33 1.48 16.33 1.75V16.25C16.33 16.52 16.11 16.74 15.84 16.74H7.04004C6.77004 16.74 6.55004 16.52 6.55004 16.25V11.96C6.55004 11.61 6.27004 11.33 5.92004 11.33C5.57004 11.33 5.29004 11.61 5.29004 11.96V16.25C5.29004 17.21 6.07004 18 7.04004 18Z" fill="white"/>
</g>
<defs>
<clipPath id="clip0_379_11463">
<rect width="17.58" height="18" fill="white"/>
</clipPath>
</defs>
</svg>
