<svg width="25" height="26" viewBox="0 0 25 26" fill="none" xmlns="http://www.w3.org/2000/svg">
    <g clip-path="url(#clip0_43_342)">
        <path
            d="M23.58 25.18C23.25 25.18 22.95 25.05 22.72 24.82L16.33 18.43H16.31C15.66 18.92 14.95 19.33 14.2 19.65C12.94 20.18 11.6 20.45 10.22 20.45C8.84 20.45 7.5 20.18 6.24 19.65C5.02 19.14 3.93 18.4 2.99 17.46C2.05 16.52 1.31 15.43 0.8 14.21C0.27 12.95 0 11.61 0 10.23C0 8.85001 0.27 7.51001 0.8 6.25001C1.31 5.03001 2.05 3.94001 2.99 3.00001C3.93 2.06001 5.02 1.32001 6.24 0.81001C7.5 0.28001 8.84 0.0100098 10.22 0.0100098C11.6 0.0100098 12.94 0.28001 14.2 0.81001C15.42 1.32001 16.51 2.06001 17.45 3.00001C18.39 3.94001 19.13 5.03001 19.64 6.25001C20.17 7.51001 20.44 8.85001 20.44 10.23C20.44 11.61 20.17 12.95 19.64 14.21C19.25 15.12 18.74 15.97 18.11 16.73V16.75L24.44 23.1C24.67 23.33 24.8 23.64 24.8 23.96C24.8 24.28 24.67 24.59 24.44 24.82C24.21 25.05 23.9 25.18 23.58 25.18ZM10.22 2.44001C5.93 2.44001 2.44 5.93001 2.44 10.22C2.44 14.51 5.93 18 10.22 18C14.51 18 18 14.51 18 10.22C18 5.93001 14.51 2.44001 10.22 2.44001Z"
            fill="#133155" />
    </g>
    <defs>
        <clipPath id="clip0_43_342">
            <rect width="24.8" height="25.18" fill="white" />
        </clipPath>
    </defs>
</svg>