<svg width="15" height="17" viewBox="0 0 15 17" fill="none" xmlns="http://www.w3.org/2000/svg">
    <g clip-path="url(#clip0_242_4146)">
        <path
            d="M12.0118 4.58135C12.0215 6.88643 10.5762 8.80734 8.2813 9.17231C5.4395 9.61411 2.9981 7.35705 2.98833 4.64858C2.97856 2.34349 4.42388 0.42259 6.7188 0.0576186C9.5606 -0.384189 12.002 1.87287 12.0118 4.58135Z"
            fill="white" />
        <path
            d="M15 15.1751C15 16.5294 12.7734 17 7.5 17C2.22656 17 0 16.5294 0 15.1751C0 12.1977 1.66992 10.0943 4.90234 9.12427C5.63477 9.54687 6.51367 9.78698 7.49023 9.78698C8.4668 9.78698 9.3457 9.54687 10.0781 9.12427C13.3105 10.0943 14.9805 12.1977 14.9805 15.1751H15Z"
            fill="white" />
    </g>
    <defs>
        <clipPath id="clip0_242_4146">
            <rect width="15" height="17" fill="white" />
        </clipPath>
    </defs>
</svg>