<svg width="71" height="79" viewBox="0 0 71 79" fill="none" xmlns="http://www.w3.org/2000/svg">
    <g style="mix-blend-mode:multiply">
        <path
            d="M70.39 65.1603C70.39 72.4503 65.04 78.4203 58.49 78.4203H12.88C6.34 78.4203 0.97998 72.4503 0.97998 65.1603V14.3303C0.97998 7.04029 6.33 1.07031 12.88 1.07031H58.49C65.03 1.07031 70.39 7.04029 70.39 14.3303V65.1603Z"
            fill="white" />
        <path
            d="M70.39 65.1303C70.39 72.4203 65.04 78.3803 58.49 78.3803H12.88C6.34 78.3803 0.97998 72.4203 0.97998 65.1303V14.3203C0.97998 7.03031 6.33 1.07031 12.88 1.07031H58.49C65.03 1.07031 70.39 7.03031 70.39 14.3203V65.1303Z"
            fill="#FEFEFE" />
        <path
            d="M70.39 65.1003C70.39 72.3903 65.04 78.3503 58.49 78.3503H12.88C6.34 78.3503 0.97998 72.3903 0.97998 65.1003V14.3203C0.97998 7.03031 6.33 1.07031 12.88 1.07031H58.49C65.03 1.07031 70.39 7.03031 70.39 14.3203V65.1003Z"
            fill="#FDFDFD" />
        <path
            d="M70.39 65.0703C70.39 72.3503 65.04 78.3103 58.49 78.3103H12.88C6.34 78.3103 0.97998 72.3503 0.97998 65.0703V14.3103C0.97998 7.0303 6.33 1.07031 12.88 1.07031H58.49C65.03 1.07031 70.39 7.0303 70.39 14.3103V65.0703Z"
            fill="#FCFCFC" />
        <path
            d="M70.39 65.0405C70.39 72.3205 65.04 78.2806 58.49 78.2806H12.88C6.34 78.2806 0.97998 72.3205 0.97998 65.0405V14.3005C0.97998 7.02054 6.33 1.06055 12.88 1.06055H58.49C65.03 1.06055 70.39 7.02054 70.39 14.3005V65.0405Z"
            fill="#FCFBFB" />
        <path
            d="M70.39 65.0203C70.39 72.3003 65.04 78.2503 58.49 78.2503H12.88C6.34 78.2503 0.97998 72.3003 0.97998 65.0203V14.3003C0.97998 7.02029 6.33 1.07031 12.88 1.07031H58.49C65.03 1.07031 70.39 7.02029 70.39 14.3003V65.0203Z"
            fill="#FBFAFA" />
        <path
            d="M70.39 64.9906C70.39 72.2606 65.04 78.2106 58.49 78.2106H12.88C6.34 78.2106 0.97998 72.2606 0.97998 64.9906V14.3006C0.97998 7.03057 6.33 1.08057 12.88 1.08057H58.49C65.03 1.08057 70.39 7.03057 70.39 14.3006V64.9906Z"
            fill="#FAFAF9" />
        <path
            d="M70.39 64.9603C70.39 72.2303 65.04 78.1803 58.49 78.1803H12.88C6.34 78.1803 0.97998 72.2303 0.97998 64.9603V14.2903C0.97998 7.02031 6.33 1.07031 12.88 1.07031H58.49C65.03 1.07031 70.39 7.02031 70.39 14.2903V64.9603Z"
            fill="#F9F9F8" />
        <path
            d="M70.39 64.9303C70.39 72.2003 65.04 78.1403 58.49 78.1403H12.88C6.34 78.1403 0.97998 72.1903 0.97998 64.9303V14.2803C0.97998 7.0103 6.33 1.07031 12.88 1.07031H58.49C65.03 1.07031 70.39 7.0203 70.39 14.2803V64.9303Z"
            fill="#F8F8F7" />
        <path
            d="M70.39 64.9006C70.39 72.1606 65.04 78.1105 58.49 78.1105H12.88C6.34 78.1105 0.97998 72.1706 0.97998 64.9006V14.2705C0.97998 7.01054 6.33 1.06055 12.88 1.06055H58.49C65.03 1.06055 70.39 7.00054 70.39 14.2705V64.9006Z"
            fill="#F7F7F6" />
        <path
            d="M70.39 64.8703C70.39 72.1303 65.04 78.0703 58.49 78.0703H12.88C6.34 78.0703 0.97998 72.1303 0.97998 64.8703V14.2703C0.97998 7.01029 6.33 1.07031 12.88 1.07031H58.49C65.03 1.07031 70.39 7.01029 70.39 14.2703V64.8703Z"
            fill="#F6F6F5" />
        <path
            d="M70.39 64.8406C70.39 72.1006 65.04 78.0306 58.49 78.0306H12.88C6.34 78.0306 0.97998 72.0906 0.97998 64.8406V14.2606C0.97998 7.00056 6.33 1.06055 12.88 1.06055H58.49C65.03 1.06055 70.39 7.00056 70.39 14.2606V64.8406Z"
            fill="#F5F5F4" />
        <path
            d="M70.39 64.8203C70.39 72.0703 65.04 78.0103 58.49 78.0103H12.88C6.34 78.0103 0.97998 72.0803 0.97998 64.8203V14.2603C0.97998 7.01031 6.33 1.07031 12.88 1.07031H58.49C65.03 1.07031 70.39 7.01031 70.39 14.2603V64.8203Z"
            fill="#F5F4F3" />
        <path
            d="M70.39 64.7903C70.39 72.0403 65.04 77.9703 58.49 77.9703H12.88C6.34 77.9703 0.97998 72.0403 0.97998 64.7903V14.2503C0.97998 7.00031 6.33 1.07031 12.88 1.07031H58.49C65.03 1.07031 70.39 7.00031 70.39 14.2503V64.7903Z"
            fill="#F4F3F2" />
        <path
            d="M70.39 64.7603C70.39 72.0103 65.04 77.9403 58.49 77.9403H12.88C6.34 77.9403 0.97998 72.0103 0.97998 64.7603V14.2503C0.97998 7.00031 6.33 1.07031 12.88 1.07031H58.49C65.03 1.07031 70.39 7.00031 70.39 14.2503V64.7603Z"
            fill="#F3F2F1" />
        <path
            d="M70.39 64.7303C70.39 71.9703 65.04 77.9003 58.49 77.9003H12.88C6.34 77.9003 0.97998 71.9703 0.97998 64.7303V14.2403C0.97998 7.0003 6.33 1.07031 12.88 1.07031H58.49C65.03 1.07031 70.39 7.0003 70.39 14.2403V64.7303Z"
            fill="#F2F1F0" />
        <path
            d="M70.39 64.7006C70.39 71.9406 65.04 77.8705 58.49 77.8705H12.88C6.34 77.8705 0.97998 71.9506 0.97998 64.7006V14.2306C0.97998 6.99056 6.33 1.06055 12.88 1.06055H58.49C65.03 1.06055 70.39 6.98056 70.39 14.2306V64.7006Z"
            fill="#F1F1EF" />
        <path
            d="M70.39 64.6705C70.39 71.9105 65.04 77.8306 58.49 77.8306H12.88C6.34 77.8306 0.97998 71.9105 0.97998 64.6705V14.2206C0.97998 6.98055 6.33 1.06055 12.88 1.06055H58.49C65.03 1.06055 70.39 6.98055 70.39 14.2206V64.6705Z"
            fill="#F0F0EE" />
        <path
            d="M70.39 64.6403C70.39 71.8703 65.04 77.7903 58.49 77.7903H12.88C6.34 77.7903 0.97998 71.8703 0.97998 64.6403V14.2203C0.97998 6.99031 6.33 1.07031 12.88 1.07031H58.49C65.03 1.07031 70.39 6.99031 70.39 14.2203V64.6403Z"
            fill="#EFEFED" />
        <path
            d="M70.39 64.6203C70.39 71.8503 65.04 77.7703 58.49 77.7703H12.88C6.34 77.7703 0.97998 71.8503 0.97998 64.6203V14.2203C0.97998 6.99031 6.33 1.07031 12.88 1.07031H58.49C65.03 1.07031 70.39 6.99031 70.39 14.2203V64.6203Z"
            fill="#EEEEEC" />
        <path
            d="M70.39 64.5903C70.39 71.8203 65.04 77.7303 58.49 77.7303H12.88C6.34 77.7303 0.97998 71.8203 0.97998 64.5903V14.2103C0.97998 6.9803 6.33 1.07031 12.88 1.07031H58.49C65.03 1.07031 70.39 6.9803 70.39 14.2103V64.5903Z"
            fill="#EEEDEB" />
        <path
            d="M70.39 64.5603C70.39 71.7803 65.04 77.7003 58.49 77.7003H12.88C6.34 77.7003 0.97998 71.7903 0.97998 64.5603V14.2103C0.97998 6.9903 6.33 1.07031 12.88 1.07031H58.49C65.03 1.07031 70.39 6.9803 70.39 14.2103V64.5603Z"
            fill="#EDECEA" />
        <path
            d="M70.39 64.5303C70.39 71.7503 65.04 77.6603 58.49 77.6603H12.88C6.34 77.6603 0.97998 71.7503 0.97998 64.5303V14.2003C0.97998 6.98032 6.33 1.07031 12.88 1.07031H58.49C65.03 1.07031 70.39 6.98032 70.39 14.2003V64.5303Z"
            fill="#ECEBE9" />
        <path
            d="M70.39 64.5003C70.39 71.7203 65.04 77.6203 58.49 77.6203H12.88C6.34 77.6203 0.97998 71.7103 0.97998 64.5003V14.1903C0.97998 6.97031 6.33 1.07031 12.88 1.07031H58.49C65.03 1.07031 70.39 6.98031 70.39 14.1903V64.5003Z"
            fill="#EBEAE8" />
        <path
            d="M70.39 64.4705C70.39 71.6905 65.04 77.5906 58.49 77.5906H12.88C6.34 77.5906 0.97998 71.6905 0.97998 64.4705V14.1805C0.97998 6.96054 6.33 1.06055 12.88 1.06055H58.49C65.03 1.06055 70.39 6.96054 70.39 14.1805V64.4705Z"
            fill="#EAE9E7" />
        <path
            d="M70.39 64.4506C70.39 71.6606 65.04 77.5606 58.49 77.5606H12.88C6.34 77.5606 0.97998 71.6606 0.97998 64.4506V14.1906C0.97998 6.98058 6.33 1.08057 12.88 1.08057H58.49C65.03 1.08057 70.39 6.98058 70.39 14.1906V64.4506Z"
            fill="#E9E8E6" />
        <path
            d="M70.39 64.4203C70.39 71.6303 65.04 77.5303 58.49 77.5303H12.88C6.34 77.5303 0.97998 71.6303 0.97998 64.4203V14.1803C0.97998 6.9703 6.33 1.07031 12.88 1.07031H58.49C65.03 1.07031 70.39 6.9703 70.39 14.1803V64.4203Z"
            fill="#E8E8E5" />
        <path
            d="M70.39 64.3903C70.39 71.6003 65.04 77.4903 58.49 77.4903H12.88C6.34 77.4903 0.97998 71.5903 0.97998 64.3903V14.1703C0.97998 6.96032 6.33 1.07031 12.88 1.07031H58.49C65.03 1.07031 70.39 6.97032 70.39 14.1703V64.3903Z"
            fill="#E8E7E4" />
        <path
            d="M70.39 64.3605C70.39 71.5605 65.04 77.4506 58.49 77.4506H12.88C6.34 77.4506 0.97998 71.5605 0.97998 64.3605V14.1606C0.97998 6.96055 6.33 1.06055 12.88 1.06055H58.49C65.03 1.06055 70.39 6.95055 70.39 14.1606V64.3605Z"
            fill="#E7E6E3" />
        <path
            d="M70.39 64.3303C70.39 71.5303 65.04 77.4203 58.49 77.4203H12.88C6.34 77.4203 0.97998 71.5303 0.97998 64.3303V14.1603C0.97998 6.96031 6.33 1.07031 12.88 1.07031H58.49C65.03 1.07031 70.39 6.96031 70.39 14.1603V64.3303Z"
            fill="#E6E5E2" />
        <path
            d="M70.39 64.3003C70.39 71.5003 65.04 77.3803 58.49 77.3803H12.88C6.34 77.3803 0.97998 71.4903 0.97998 64.3003V14.1503C0.97998 6.9503 6.33 1.07031 12.88 1.07031H58.49C65.03 1.07031 70.39 6.9603 70.39 14.1503V64.3003Z"
            fill="#E5E4E1" />
        <path
            d="M70.39 64.2706C70.39 71.4606 65.04 77.3505 58.49 77.3505H12.88C6.34 77.3505 0.97998 71.4706 0.97998 64.2706V14.1406C0.97998 6.95056 6.33 1.06055 12.88 1.06055H58.49C65.03 1.06055 70.39 6.94056 70.39 14.1406V64.2706Z"
            fill="#E4E3E0" />
        <path
            d="M70.39 64.2503C70.39 71.4403 65.04 77.3203 58.49 77.3203H12.88C6.34 77.3203 0.97998 71.4403 0.97998 64.2503V14.1403C0.97998 6.95032 6.33 1.07031 12.88 1.07031H58.49C65.03 1.07031 70.39 6.95032 70.39 14.1403V64.2503Z"
            fill="#E3E2DF" />
        <path
            d="M70.39 64.2203C70.39 71.4103 65.04 77.2903 58.49 77.2903H12.88C6.34 77.2903 0.97998 71.4103 0.97998 64.2203V14.1403C0.97998 6.95032 6.33 1.07031 12.88 1.07031H58.49C65.03 1.07031 70.39 6.95032 70.39 14.1403V64.2203Z"
            fill="#E2E1DE" />
        <path
            d="M70.39 64.1903C70.39 71.3703 65.04 77.2503 58.49 77.2503H12.88C6.34 77.2503 0.97998 71.3703 0.97998 64.1903V14.1303C0.97998 6.95031 6.33 1.07031 12.88 1.07031H58.49C65.03 1.07031 70.39 6.95031 70.39 14.1303V64.1903Z"
            fill="#E1E0DD" />
        <path
            d="M70.39 64.1603C70.39 71.3403 65.04 77.2103 58.49 77.2103H12.88C6.34 77.2103 0.97998 71.3403 0.97998 64.1603V14.1203C0.97998 6.9403 6.33 1.07031 12.88 1.07031H58.49C65.03 1.07031 70.39 6.9403 70.39 14.1203V64.1603Z"
            fill="#E1DFDC" />
        <path
            d="M70.39 64.1306C70.39 71.3106 65.04 77.1805 58.49 77.1805H12.88C6.34 77.1805 0.97998 71.3106 0.97998 64.1306V14.1105C0.97998 6.93053 6.33 1.06055 12.88 1.06055H58.49C65.03 1.06055 70.39 6.93053 70.39 14.1105V64.1306Z"
            fill="#E0DFDB" />
        <path
            d="M70.39 64.1003C70.39 71.2703 65.04 77.1403 58.49 77.1403H12.88C6.34 77.1403 0.97998 71.2703 0.97998 64.1003V14.1103C0.97998 6.94029 6.33 1.07031 12.88 1.07031H58.49C65.03 1.07031 70.39 6.94029 70.39 14.1103V64.1003Z"
            fill="#DFDEDA" />
        <path
            d="M70.39 64.0706C70.39 71.2406 65.04 77.1105 58.49 77.1105H12.88C6.34 77.1105 0.97998 71.2406 0.97998 64.0706V14.1006C0.97998 6.93056 6.33 1.06055 12.88 1.06055H58.49C65.03 1.06055 70.39 6.93056 70.39 14.1006V64.0706Z"
            fill="#DEDDD9" />
        <path
            d="M70.39 64.0503C70.39 71.2203 65.04 77.0803 58.49 77.0803H12.88C6.34 77.0803 0.97998 71.2203 0.97998 64.0503V14.1003C0.97998 6.93031 6.33 1.07031 12.88 1.07031H58.49C65.03 1.07031 70.39 6.93031 70.39 14.1003V64.0503Z"
            fill="#DDDCD8" />
        <path
            d="M70.39 64.0206C70.39 71.1806 65.04 77.0406 58.49 77.0406H12.88C6.34 77.0406 0.97998 71.1806 0.97998 64.0206V14.1006C0.97998 6.94059 6.33 1.08057 12.88 1.08057H58.49C65.03 1.08057 70.39 6.94059 70.39 14.1006V64.0206Z"
            fill="#DCDBD7" />
        <path
            d="M70.39 63.9903C70.39 71.1503 65.04 77.0103 58.49 77.0103H12.88C6.34 77.0103 0.97998 71.1503 0.97998 63.9903V14.0903C0.97998 6.9303 6.33 1.07031 12.88 1.07031H58.49C65.03 1.07031 70.39 6.9303 70.39 14.0903V63.9903Z"
            fill="#DBDAD6" />
        <path
            d="M70.39 63.9603C70.39 71.1203 65.04 76.9703 58.49 76.9703H12.88C6.34 76.9703 0.97998 71.1103 0.97998 63.9603V14.0803C0.97998 6.92029 6.33 1.07031 12.88 1.07031H58.49C65.03 1.07031 70.39 6.93029 70.39 14.0803V63.9603Z"
            fill="#DAD9D5" />
        <path
            d="M70.39 63.9305C70.39 71.0805 65.04 76.9406 58.49 76.9406H12.88C6.34 76.9406 0.97998 71.0905 0.97998 63.9305V14.0706C0.97998 6.92056 6.33 1.06055 12.88 1.06055H58.49C65.03 1.06055 70.39 6.91056 70.39 14.0706V63.9305Z"
            fill="#DAD8D4" />
        <path
            d="M70.39 63.9003C70.39 71.0503 65.04 76.9003 58.49 76.9003H12.88C6.34 76.9003 0.97998 71.0503 0.97998 63.9003V14.0703C0.97998 6.92031 6.33 1.07031 12.88 1.07031H58.49C65.03 1.07031 70.39 6.92031 70.39 14.0703V63.9003Z"
            fill="#D9D7D3" />
        <path
            d="M70.39 63.8703C70.39 71.0203 65.04 76.8603 58.49 76.8603H12.88C6.34 76.8603 0.97998 71.0103 0.97998 63.8703V14.0603C0.97998 6.9103 6.33 1.07031 12.88 1.07031H58.49C65.03 1.07031 70.39 6.9203 70.39 14.0603V63.8703Z"
            fill="#D8D6D2" />
        <path
            d="M70.39 63.8503C70.39 70.9903 65.04 76.8403 58.49 76.8403H12.88C6.34 76.8403 0.97998 71.0003 0.97998 63.8503V14.0603C0.97998 6.9203 6.33 1.07031 12.88 1.07031H58.49C65.03 1.07031 70.39 6.9203 70.39 14.0603V63.8503Z"
            fill="#D7D6D1" />
        <path
            d="M70.39 63.8203C70.39 70.9603 65.04 76.8003 58.49 76.8003H12.88C6.34 76.8003 0.97998 70.9603 0.97998 63.8203V14.0503C0.97998 6.91029 6.33 1.07031 12.88 1.07031H58.49C65.03 1.07031 70.39 6.91029 70.39 14.0503V63.8203Z"
            fill="#D6D5D0" />
        <path
            d="M70.39 63.7903C70.39 70.9303 65.04 76.7703 58.49 76.7703H12.88C6.34 76.7703 0.97998 70.9303 0.97998 63.7903V14.0503C0.97998 6.91029 6.33 1.07031 12.88 1.07031H58.49C65.03 1.07031 70.39 6.91029 70.39 14.0503V63.7903Z"
            fill="#D5D4CF" />
        <path
            d="M70.39 63.7603C70.39 70.8903 65.04 76.7303 58.49 76.7303H12.88C6.34 76.7303 0.97998 70.8903 0.97998 63.7603V14.0403C0.97998 6.91031 6.33 1.07031 12.88 1.07031H58.49C65.03 1.07031 70.39 6.91031 70.39 14.0403V63.7603Z"
            fill="#D4D3CE" />
        <path
            d="M70.39 63.7305C70.39 70.8605 65.04 76.6906 58.49 76.6906H12.88C6.34 76.6906 0.97998 70.8605 0.97998 63.7305V14.0305C0.97998 6.90055 6.33 1.06055 12.88 1.06055H58.49C65.03 1.06055 70.39 6.89055 70.39 14.0305V63.7305Z"
            fill="#D3D2CD" />
        <path
            d="M70.39 63.7006C70.39 70.8306 65.04 76.6605 58.49 76.6605H12.88C6.34 76.6605 0.97998 70.8306 0.97998 63.7006V14.0205C0.97998 6.89054 6.33 1.06055 12.88 1.06055H58.49C65.03 1.06055 70.39 6.89054 70.39 14.0205V63.7006Z"
            fill="#D3D1CC" />
        <path
            d="M70.39 63.6806C70.39 70.8006 65.04 76.6306 58.49 76.6306H12.88C6.34 76.6306 0.97998 70.8006 0.97998 63.6806V14.0306C0.97998 6.91058 6.33 1.08057 12.88 1.08057H58.49C65.03 1.08057 70.39 6.91058 70.39 14.0306V63.6806Z"
            fill="#D2D0CB" />
        <path
            d="M70.39 63.6503C70.39 70.7703 65.04 76.6003 58.49 76.6003H12.88C6.34 76.6003 0.97998 70.7703 0.97998 63.6503V14.0203C0.97998 6.90029 6.33 1.07031 12.88 1.07031H58.49C65.03 1.07031 70.39 6.90029 70.39 14.0203V63.6503Z"
            fill="#D1CFCA" />
        <path
            d="M70.39 63.6203C70.39 70.7403 65.04 76.5603 58.49 76.5603H12.88C6.34 76.5603 0.97998 70.7403 0.97998 63.6203V14.0103C0.97998 6.89032 6.33 1.07031 12.88 1.07031H58.49C65.03 1.07031 70.39 6.89032 70.39 14.0103V63.6203Z"
            fill="#D0CEC9" />
        <path
            d="M70.39 63.5906C70.39 70.7006 65.04 76.5306 58.49 76.5306H12.88C6.34 76.5306 0.97998 70.7106 0.97998 63.5906V14.0005C0.97998 6.89055 6.33 1.06055 12.88 1.06055H58.49C65.03 1.06055 70.39 6.88055 70.39 14.0005V63.5906Z"
            fill="#CFCDC8" />
        <path
            d="M70.39 63.5603C70.39 70.6703 65.04 76.4903 58.49 76.4903H12.88C6.34 76.4903 0.97998 70.6703 0.97998 63.5603V14.0003C0.97998 6.89031 6.33 1.07031 12.88 1.07031H58.49C65.03 1.07031 70.39 6.89031 70.39 14.0003V63.5603Z"
            fill="#CECDC7" />
        <path
            d="M70.39 63.5303C70.39 70.6403 65.04 76.4503 58.49 76.4503H12.88C6.34 76.4503 0.97998 70.6303 0.97998 63.5303V13.9903C0.97998 6.8803 6.33 1.07031 12.88 1.07031H58.49C65.03 1.07031 70.39 6.8903 70.39 13.9903V63.5303Z"
            fill="#CDCCC6" />
        <path
            d="M70.39 63.5005C70.39 70.6005 65.04 76.4205 58.49 76.4205H12.88C6.34 76.4205 0.97998 70.6105 0.97998 63.5005V13.9806C0.97998 6.88056 6.33 1.06055 12.88 1.06055H58.49C65.03 1.06055 70.39 6.87056 70.39 13.9806V63.5005Z"
            fill="#CDCBC5" />
        <path
            d="M70.39 63.4803C70.39 70.5803 65.04 76.3903 58.49 76.3903H12.88C6.34 76.3903 0.97998 70.5803 0.97998 63.4803V13.9803C0.97998 6.88032 6.33 1.07031 12.88 1.07031H58.49C65.03 1.07031 70.39 6.88032 70.39 13.9803V63.4803Z"
            fill="#CCCAC4" />
        <path
            d="M70.39 63.4503C70.39 70.5503 65.04 76.3603 58.49 76.3603H12.88C6.34 76.3603 0.97998 70.5503 0.97998 63.4503V13.9803C0.97998 6.88032 6.33 1.07031 12.88 1.07031H58.49C65.03 1.07031 70.39 6.88032 70.39 13.9803V63.4503Z"
            fill="#CBC9C3" />
        <path
            d="M70.39 63.4203C70.39 70.5203 65.04 76.3203 58.49 76.3203H12.88C6.34 76.3203 0.97998 70.5203 0.97998 63.4203V13.9703C0.97998 6.87031 6.33 1.07031 12.88 1.07031H58.49C65.03 1.07031 70.39 6.88031 70.39 13.9703V63.4203Z"
            fill="#CAC8C2" />
        <path
            d="M70.39 63.3903C70.39 70.4803 65.04 76.2803 58.49 76.2803H12.88C6.34 76.2803 0.97998 70.4803 0.97998 63.3903V13.9603C0.97998 6.8703 6.33 1.07031 12.88 1.07031H58.49C65.03 1.07031 70.39 6.8703 70.39 13.9603V63.3903Z"
            fill="#C9C7C1" />
        <path
            d="M70.39 63.3603C70.39 70.4503 65.04 76.2503 58.49 76.2503H12.88C6.34 76.2503 0.97998 70.4503 0.97998 63.3603V13.9603C0.97998 6.8703 6.33 1.07031 12.88 1.07031H58.49C65.03 1.07031 70.39 6.8703 70.39 13.9603V63.3603Z"
            fill="#C8C6C0" />
        <path
            d="M70.39 63.3303C70.39 70.4203 65.04 76.2103 58.49 76.2103H12.88C6.34 76.2103 0.97998 70.4103 0.97998 63.3303V13.9503C0.97998 6.86032 6.33 1.07031 12.88 1.07031H58.49C65.03 1.07031 70.39 6.87032 70.39 13.9503V63.3303Z"
            fill="#C7C5BF" />
        <path
            d="M70.39 63.3005C70.39 70.3805 65.04 76.1805 58.49 76.1805H12.88C6.34 76.1805 0.97998 70.3905 0.97998 63.3005V13.9406C0.97998 6.86055 6.33 1.06055 12.88 1.06055H58.49C65.03 1.06055 70.39 6.85055 70.39 13.9406V63.3005Z"
            fill="#C6C4BE" />
        <path
            d="M70.39 63.2803C70.39 70.3603 65.04 76.1503 58.49 76.1503H12.88C6.34 76.1503 0.97998 70.3603 0.97998 63.2803V13.9403C0.97998 6.86031 6.33 1.07031 12.88 1.07031H58.49C65.03 1.07031 70.39 6.86031 70.39 13.9403V63.2803Z"
            fill="#C6C4BD" />
        <path
            d="M70.39 63.2503C70.39 70.3303 65.04 76.1103 58.49 76.1103H12.88C6.34 76.1103 0.97998 70.3203 0.97998 63.2503V13.9403C0.97998 6.86031 6.33 1.07031 12.88 1.07031H58.49C65.03 1.07031 70.39 6.86031 70.39 13.9403V63.2503Z"
            fill="#C5C3BC" />
        <path
            d="M70.39 63.2203C70.39 70.2903 65.04 76.0803 58.49 76.0803H12.88C6.34 76.0803 0.97998 70.2903 0.97998 63.2203V13.9303C0.97998 6.8603 6.33 1.07031 12.88 1.07031H58.49C65.03 1.07031 70.39 6.8603 70.39 13.9303V63.2203Z"
            fill="#C4C2BB" />
        <path
            d="M70.39 63.1903C70.39 70.2603 65.04 76.0403 58.49 76.0403H12.88C6.34 76.0403 0.97998 70.2603 0.97998 63.1903V13.9203C0.97998 6.85032 6.33 1.07031 12.88 1.07031H58.49C65.03 1.07031 70.39 6.85032 70.39 13.9203V63.1903Z"
            fill="#C3C1BA" />
        <path
            d="M70.39 63.1605C70.39 70.2305 65.04 76.0106 58.49 76.0106H12.88C6.34 76.0106 0.97998 70.2305 0.97998 63.1605V13.9106C0.97998 6.84055 6.33 1.06055 12.88 1.06055H58.49C65.03 1.06055 70.39 6.84055 70.39 13.9106V63.1605Z"
            fill="#C2C0B9" />
        <path
            d="M70.39 63.1303C70.39 70.1903 65.04 75.9703 58.49 75.9703H12.88C6.34 75.9703 0.97998 70.1903 0.97998 63.1303V13.9103C0.97998 6.85031 6.33 1.07031 12.88 1.07031H58.49C65.03 1.07031 70.39 6.85031 70.39 13.9103V63.1303Z"
            fill="#C1BFB8" />
        <path
            d="M70.39 63.1005C70.39 70.1605 65.04 75.9406 58.49 75.9406H12.88C6.34 75.9406 0.97998 70.1605 0.97998 63.1005V13.9005C0.97998 6.84054 6.33 1.06055 12.88 1.06055H58.49C65.03 1.06055 70.39 6.84054 70.39 13.9005V63.1005Z"
            fill="#C0BEB7" />
        <path
            d="M70.39 63.0803C70.39 70.1403 65.04 75.9103 58.49 75.9103H12.88C6.34 75.9103 0.97998 70.1403 0.97998 63.0803V13.9003C0.97998 6.8403 6.33 1.07031 12.88 1.07031H58.49C65.03 1.07031 70.39 6.8403 70.39 13.9003V63.0803Z"
            fill="#BFBDB6" />
        <path
            d="M70.39 63.0503C70.39 70.1003 65.04 75.8703 58.49 75.8703H12.88C6.34 75.8703 0.97998 70.1003 0.97998 63.0503V13.8903C0.97998 6.84032 6.33 1.07031 12.88 1.07031H58.49C65.03 1.07031 70.39 6.84032 70.39 13.8903V63.0503Z"
            fill="#BFBCB5" />
        <path
            d="M70.39 63.0203C70.39 70.0703 65.04 75.8403 58.49 75.8403H12.88C6.34 75.8403 0.97998 70.0703 0.97998 63.0203V13.8903C0.97998 6.84032 6.33 1.07031 12.88 1.07031H58.49C65.03 1.07031 70.39 6.84032 70.39 13.8903V63.0203Z"
            fill="#BEBBB4" />
        <path
            d="M70.39 62.9903C70.39 70.0403 65.04 75.8003 58.49 75.8003H12.88C6.34 75.8003 0.97998 70.0303 0.97998 62.9903V13.8803C0.97998 6.83031 6.33 1.07031 12.88 1.07031H58.49C65.03 1.07031 70.39 6.84031 70.39 13.8803V62.9903Z"
            fill="#BDBBB3" />
        <path
            d="M70.39 62.9606C70.39 70.0006 65.04 75.7706 58.49 75.7706H12.88C6.34 75.7706 0.97998 70.0106 0.97998 62.9606V13.8705C0.97998 6.83054 6.33 1.06055 12.88 1.06055H58.49C65.03 1.06055 70.39 6.82054 70.39 13.8705V62.9606Z"
            fill="#BCBAB2" />
        <path
            d="M70.39 62.9305C70.39 69.9705 65.04 75.7305 58.49 75.7305H12.88C6.34 75.7305 0.97998 69.9705 0.97998 62.9305V13.8605C0.97998 6.82053 6.33 1.06055 12.88 1.06055H58.49C65.03 1.06055 70.39 6.82053 70.39 13.8605V62.9305Z"
            fill="#BBB9B1" />
        <path
            d="M70.39 62.9106C70.39 69.9506 65.04 75.7006 58.49 75.7006H12.88C6.34 75.7006 0.97998 69.9406 0.97998 62.9106V13.8706C0.97998 6.83057 6.33 1.08057 12.88 1.08057H58.49C65.03 1.08057 70.39 6.84057 70.39 13.8706V62.9106Z"
            fill="#BAB8B0" />
        <path
            d="M70.39 62.8803C70.39 69.9103 65.04 75.6703 58.49 75.6703H12.88C6.34 75.6703 0.97998 69.9203 0.97998 62.8803V13.8603C0.97998 6.83029 6.33 1.07031 12.88 1.07031H58.49C65.03 1.07031 70.39 6.82029 70.39 13.8603V62.8803Z"
            fill="#B9B7AF" />
        <path
            d="M70.39 62.8503C70.39 69.8803 65.04 75.6303 58.49 75.6303H12.88C6.34 75.6303 0.97998 69.8803 0.97998 62.8503V13.8503C0.97998 6.82031 6.33 1.07031 12.88 1.07031H58.49C65.03 1.07031 70.39 6.82031 70.39 13.8503V62.8503Z"
            fill="#B9B6AE" />
        <path
            d="M70.39 62.8206C70.39 69.8506 65.04 75.6005 58.49 75.6005H12.88C6.34 75.6005 0.97998 69.8506 0.97998 62.8206V13.8405C0.97998 6.81055 6.33 1.06055 12.88 1.06055H58.49C65.03 1.06055 70.39 6.81055 70.39 13.8405V62.8206Z"
            fill="#B8B5AD" />
        <path
            d="M70.39 62.7903C70.39 69.8103 65.04 75.5603 58.49 75.5603H12.88C6.34 75.5603 0.97998 69.8103 0.97998 62.7903V13.8403C0.97998 6.8203 6.33 1.07031 12.88 1.07031H58.49C65.03 1.07031 70.39 6.8203 70.39 13.8403V62.7903Z"
            fill="#B7B4AC" />
        <path
            d="M70.39 62.7603C70.39 69.7803 65.04 75.5203 58.49 75.5203H12.88C6.34 75.5203 0.97998 69.7803 0.97998 62.7603V13.8303C0.97998 6.81029 6.33 1.07031 12.88 1.07031H58.49C65.03 1.07031 70.39 6.81029 70.39 13.8303V62.7603Z"
            fill="#B6B3AB" />
        <path
            d="M70.39 62.7305C70.39 69.7505 65.04 75.4905 58.49 75.4905H12.88C6.34 75.4905 0.97998 69.7505 0.97998 62.7305V13.8206C0.97998 6.80056 6.33 1.06055 12.88 1.06055H58.49C65.03 1.06055 70.39 6.80056 70.39 13.8206V62.7305Z"
            fill="#B5B2AA" />
        <path
            d="M70.39 62.7106C70.39 69.7206 65.04 75.4606 58.49 75.4606H12.88C6.34 75.4606 0.97998 69.7206 0.97998 62.7106V13.8306C0.97998 6.82057 6.33 1.08057 12.88 1.08057H58.49C65.03 1.08057 70.39 6.82057 70.39 13.8306V62.7106Z"
            fill="#B4B2A9" />
        <path
            d="M70.39 62.6803C70.39 69.6903 65.04 75.4303 58.49 75.4303H12.88C6.34 75.4303 0.97998 69.6903 0.97998 62.6803V13.8203C0.97998 6.81031 6.33 1.07031 12.88 1.07031H58.49C65.03 1.07031 70.39 6.81031 70.39 13.8203V62.6803Z"
            fill="#B3B1A8" />
        <path
            d="M70.39 62.6503C70.39 69.6603 65.04 75.3903 58.49 75.3903H12.88C6.34 75.3903 0.97998 69.6603 0.97998 62.6503V13.8103C0.97998 6.8003 6.33 1.07031 12.88 1.07031H58.49C65.03 1.07031 70.39 6.8003 70.39 13.8103V62.6503Z"
            fill="#B2B0A7" />
        <path
            d="M70.39 62.6205C70.39 69.6205 65.04 75.3505 58.49 75.3505H12.88C6.34 75.3505 0.97998 69.6205 0.97998 62.6205V13.8005C0.97998 6.80054 6.33 1.06055 12.88 1.06055H58.49C65.03 1.06055 70.39 6.79054 70.39 13.8005V62.6205Z"
            fill="#B2AFA6" />
        <path
            d="M70.39 62.5903C70.39 69.5903 65.04 75.3203 58.49 75.3203H12.88C6.34 75.3203 0.97998 69.5903 0.97998 62.5903V13.8003C0.97998 6.80029 6.33 1.07031 12.88 1.07031H58.49C65.03 1.07031 70.39 6.80029 70.39 13.8003V62.5903Z"
            fill="#B1AEA5" />
        <path
            d="M70.39 62.5603C70.39 69.5603 65.04 75.2803 58.49 75.2803H12.88C6.34 75.2803 0.97998 69.5503 0.97998 62.5603V13.7903C0.97998 6.79031 6.33 1.07031 12.88 1.07031H58.49C65.03 1.07031 70.39 6.80031 70.39 13.7903V62.5603Z"
            fill="#B0ADA4" />
        <path
            d="M70.39 62.5306C70.39 69.5206 65.04 75.2505 58.49 75.2505H12.88C6.34 75.2505 0.97998 69.5306 0.97998 62.5306V13.7805C0.97998 6.79055 6.33 1.06055 12.88 1.06055H58.49C65.03 1.06055 70.39 6.78055 70.39 13.7805V62.5306Z"
            fill="#AFACA3" />
        <path
            d="M70.39 62.5103C70.39 69.5003 65.04 75.2203 58.49 75.2203H12.88C6.34 75.2203 0.97998 69.5003 0.97998 62.5103V13.7803C0.97998 6.7903 6.33 1.07031 12.88 1.07031H58.49C65.03 1.07031 70.39 6.7903 70.39 13.7803V62.5103Z"
            fill="#AEABA2" />
        <path
            d="M70.39 62.4803C70.39 69.4703 65.04 75.1903 58.49 75.1903H12.88C6.34 75.1903 0.97998 69.4703 0.97998 62.4803V13.7803C0.97998 6.7903 6.33 1.07031 12.88 1.07031H58.49C65.03 1.07031 70.39 6.7903 70.39 13.7803V62.4803Z"
            fill="#ADAAA1" />
        <path
            d="M70.39 62.4503C70.39 69.4303 65.04 75.1503 58.49 75.1503H12.88C6.34 75.1503 0.97998 69.4403 0.97998 62.4503V13.7703C0.97998 6.79029 6.33 1.07031 12.88 1.07031H58.49C65.03 1.07031 70.39 6.79029 70.39 13.7703V62.4503Z"
            fill="#ACA9A0" />
        <path
            d="M70.39 62.4203C70.39 69.4003 65.04 75.1103 58.49 75.1103H12.88C6.34 75.1103 0.97998 69.4003 0.97998 62.4203V13.7603C0.97998 6.78031 6.33 1.07031 12.88 1.07031H58.49C65.03 1.07031 70.39 6.78031 70.39 13.7603V62.4203Z"
            fill="#ABA99F" />
        <path
            d="M70.39 62.3906C70.39 69.3706 65.04 75.0806 58.49 75.0806H12.88C6.34 75.0806 0.97998 69.3706 0.97998 62.3906V13.7505C0.97998 6.77055 6.33 1.06055 12.88 1.06055H58.49C65.03 1.06055 70.39 6.77055 70.39 13.7505V62.3906Z"
            fill="#ABA89E" />
        <path
            d="M70.39 62.3603C70.39 69.3403 65.04 75.0403 58.49 75.0403H12.88C6.34 75.0403 0.97998 69.3303 0.97998 62.3603V13.7503C0.97998 6.77031 6.33 1.07031 12.88 1.07031H58.49C65.03 1.07031 70.39 6.78031 70.39 13.7503V62.3603Z"
            fill="#AAA79D" />
        <path
            d="M70.39 62.3403C70.39 69.3103 65.04 75.0203 58.49 75.0203H12.88C6.34 75.0203 0.97998 69.3203 0.97998 62.3403V13.7503C0.97998 6.78031 6.33 1.07031 12.88 1.07031H58.49C65.03 1.07031 70.39 6.77031 70.39 13.7503V62.3403Z"
            fill="#A9A69C" />
        <path
            d="M70.39 62.3103C70.39 69.2803 65.04 74.9803 58.49 74.9803H12.88C6.34 74.9803 0.97998 69.2803 0.97998 62.3103V13.7403C0.97998 6.7703 6.33 1.07031 12.88 1.07031H58.49C65.03 1.07031 70.39 6.7703 70.39 13.7403V62.3103Z"
            fill="#A8A59B" />
        <path
            d="M70.39 62.2803C70.39 69.2503 65.04 74.9403 58.49 74.9403H12.88C6.34 74.9403 0.97998 69.2403 0.97998 62.2803V13.7303C0.97998 6.76032 6.33 1.07031 12.88 1.07031H58.49C65.03 1.07031 70.39 6.77032 70.39 13.7303V62.2803Z"
            fill="#A7A49A" />
        <path
            d="M70.39 62.2503C70.39 69.2103 65.04 74.9103 58.49 74.9103H12.88C6.34 74.9103 0.97998 69.2103 0.97998 62.2503V13.7303C0.97998 6.77032 6.33 1.07031 12.88 1.07031H58.49C65.03 1.07031 70.39 6.77032 70.39 13.7303V62.2503Z"
            fill="#A6A399" />
        <path
            d="M70.39 62.2203C70.39 69.1803 65.04 74.8703 58.49 74.8703H12.88C6.34 74.8703 0.97998 69.1803 0.97998 62.2203V13.7203C0.97998 6.76031 6.33 1.07031 12.88 1.07031H58.49C65.03 1.07031 70.39 6.76031 70.39 13.7203V62.2203Z"
            fill="#A5A298" />
        <path
            d="M70.39 62.1906C70.39 69.1506 65.04 74.8406 58.49 74.8406H12.88C6.34 74.8406 0.97998 69.1506 0.97998 62.1906V13.7105C0.97998 6.75054 6.33 1.06055 12.88 1.06055H58.49C65.03 1.06055 70.39 6.75054 70.39 13.7105V62.1906Z"
            fill="#A5A197" />
        <path
            d="M70.39 62.1603C70.39 69.1103 65.04 74.8003 58.49 74.8003H12.88C6.34 74.8003 0.97998 69.1103 0.97998 62.1603V13.7103C0.97998 6.7603 6.33 1.07031 12.88 1.07031H58.49C65.03 1.07031 70.39 6.7603 70.39 13.7103V62.1603Z"
            fill="#A4A096" />
        <path
            d="M70.39 62.1406C70.39 69.0906 65.04 74.7706 58.49 74.7706H12.88C6.34 74.7706 0.97998 69.0806 0.97998 62.1406V13.7106C0.97998 6.76057 6.33 1.08057 12.88 1.08057H58.49C65.03 1.08057 70.39 6.77057 70.39 13.7106V62.1406Z"
            fill="#A3A095" />
        <path
            d="M70.39 62.1103C70.39 69.0603 65.04 74.7403 58.49 74.7403H12.88C6.34 74.7403 0.97998 69.0603 0.97998 62.1103V13.7003C0.97998 6.75032 6.33 1.07031 12.88 1.07031H58.49C65.03 1.07031 70.39 6.75032 70.39 13.7003V62.1103Z"
            fill="#A29F94" />
        <path
            d="M70.39 62.0803C70.39 69.0203 65.04 74.7003 58.49 74.7003H12.88C6.34 74.7003 0.97998 69.0203 0.97998 62.0803V13.6903C0.97998 6.75031 6.33 1.07031 12.88 1.07031H58.49C65.03 1.07031 70.39 6.75031 70.39 13.6903V62.0803Z"
            fill="#A19E93" />
        <path
            d="M70.39 62.0503C70.39 68.9903 65.04 74.6703 58.49 74.6703H12.88C6.34 74.6703 0.97998 68.9903 0.97998 62.0503V13.6903C0.97998 6.75031 6.33 1.07031 12.88 1.07031H58.49C65.03 1.07031 70.39 6.75031 70.39 13.6903V62.0503Z"
            fill="#A09D92" />
        <path
            d="M70.39 62.0203C70.39 68.9603 65.04 74.6303 58.49 74.6303H12.88C6.34 74.6303 0.97998 68.9603 0.97998 62.0203V13.6803C0.97998 6.7403 6.33 1.07031 12.88 1.07031H58.49C65.03 1.07031 70.39 6.7503 70.39 13.6803V62.0203Z"
            fill="#9F9C91" />
        <path
            d="M70.39 61.9905C70.39 68.9205 65.04 74.5906 58.49 74.5906H12.88C6.34 74.5906 0.97998 68.9205 0.97998 61.9905V13.6706C0.97998 6.74056 6.33 1.06055 12.88 1.06055H58.49C65.03 1.06055 70.39 6.73056 70.39 13.6706V61.9905Z"
            fill="#9E9B90" />
        <path
            d="M70.39 61.9606C70.39 68.8906 65.04 74.5605 58.49 74.5605H12.88C6.34 74.5605 0.97998 68.8906 0.97998 61.9606V13.6606C0.97998 6.73055 6.33 1.06055 12.88 1.06055H58.49C65.03 1.06055 70.39 6.73055 70.39 13.6606V61.9606Z"
            fill="#9E9A8F" />
        <path
            d="M70.39 61.9406C70.39 68.8706 65.04 74.5306 58.49 74.5306H12.88C6.34 74.5306 0.97998 68.8606 0.97998 61.9406V13.6706C0.97998 6.74059 6.33 1.08057 12.88 1.08057H58.49C65.03 1.08057 70.39 6.75059 70.39 13.6706V61.9406Z"
            fill="#9D998E" />
        <path
            d="M70.39 61.9103C70.39 68.8303 65.04 74.5003 58.49 74.5003H12.88C6.34 74.5003 0.97998 68.8403 0.97998 61.9103V13.6603C0.97998 6.74031 6.33 1.07031 12.88 1.07031H58.49C65.03 1.07031 70.39 6.73031 70.39 13.6603V61.9103Z"
            fill="#9C988D" />
        <path
            d="M70.39 61.8803C70.39 68.8003 65.04 74.4603 58.49 74.4603H12.88C6.34 74.4603 0.97998 68.8003 0.97998 61.8803V13.6503C0.97998 6.7303 6.33 1.07031 12.88 1.07031H58.49C65.03 1.07031 70.39 6.7303 70.39 13.6503V61.8803Z"
            fill="#9B978C" />
        <path
            d="M70.39 61.8505C70.39 68.7705 65.04 74.4305 58.49 74.4305H12.88C6.34 74.4305 0.97998 68.7705 0.97998 61.8505V13.6406C0.97998 6.72056 6.33 1.06055 12.88 1.06055H58.49C65.03 1.06055 70.39 6.72056 70.39 13.6406V61.8505Z"
            fill="#9A978B" />
        <path
            d="M70.39 61.8203C70.39 68.7303 65.04 74.3903 58.49 74.3903H12.88C6.34 74.3903 0.97998 68.7303 0.97998 61.8203V13.6403C0.97998 6.73032 6.33 1.07031 12.88 1.07031H58.49C65.03 1.07031 70.39 6.73032 70.39 13.6403V61.8203Z"
            fill="#99968A" />
        <path
            d="M70.39 61.7903C70.39 68.7003 65.04 74.3503 58.49 74.3503H12.88C6.34 74.3503 0.97998 68.7003 0.97998 61.7903V13.6303C0.97998 6.72031 6.33 1.07031 12.88 1.07031H58.49C65.03 1.07031 70.39 6.72031 70.39 13.6303V61.7903Z"
            fill="#989589" />
        <path
            d="M70.39 61.7606C70.39 68.6706 65.04 74.3206 58.49 74.3206H12.88C6.34 74.3206 0.97998 68.6706 0.97998 61.7606V13.6205C0.97998 6.71054 6.33 1.06055 12.88 1.06055H58.49C65.03 1.06055 70.39 6.71054 70.39 13.6205V61.7606Z"
            fill="#979488" />
        <path
            d="M70.39 61.7403C70.39 68.6403 65.04 74.2903 58.49 74.2903H12.88C6.34 74.2903 0.97998 68.6403 0.97998 61.7403V13.6203C0.97998 6.7203 6.33 1.07031 12.88 1.07031H58.49C65.03 1.07031 70.39 6.7203 70.39 13.6203V61.7403Z"
            fill="#979387" />
        <path
            d="M70.39 61.7103C70.39 68.6103 65.04 74.2603 58.49 74.2603H12.88C6.34 74.2603 0.97998 68.6103 0.97998 61.7103V13.6203C0.97998 6.7203 6.33 1.07031 12.88 1.07031H58.49C65.03 1.07031 70.39 6.7203 70.39 13.6203V61.7103Z"
            fill="#969286" />
        <path
            d="M70.39 61.6803C70.39 68.5803 65.04 74.2203 58.49 74.2203H12.88C6.34 74.2203 0.97998 68.5803 0.97998 61.6803V13.6103C0.97998 6.71029 6.33 1.07031 12.88 1.07031H58.49C65.03 1.07031 70.39 6.71029 70.39 13.6103V61.6803Z"
            fill="#959185" />
        <path
            d="M70.39 61.6503C70.39 68.5403 65.04 74.1803 58.49 74.1803H12.88C6.34 74.1803 0.97998 68.5403 0.97998 61.6503V13.6003C0.97998 6.71031 6.33 1.07031 12.88 1.07031H58.49C65.03 1.07031 70.39 6.71031 70.39 13.6003V61.6503Z"
            fill="#949084" />
        <path
            d="M70.39 61.6205C70.39 68.5105 65.04 74.1506 58.49 74.1506H12.88C6.34 74.1506 0.97998 68.5105 0.97998 61.6205V13.5905C0.97998 6.70055 6.33 1.06055 12.88 1.06055H58.49C65.03 1.06055 70.39 6.70055 70.39 13.5905V61.6205Z"
            fill="#938F83" />
        <path
            d="M70.39 61.5903C70.39 68.4803 65.04 74.1103 58.49 74.1103H12.88C6.34 74.1103 0.97998 68.4803 0.97998 61.5903V13.5903C0.97998 6.7003 6.33 1.07031 12.88 1.07031H58.49C65.03 1.07031 70.39 6.7103 70.39 13.5903V61.5903Z"
            fill="#928E82" />
        <path
            d="M70.39 61.5703C70.39 68.4503 65.04 74.0903 58.49 74.0903H12.88C6.34 74.0903 0.97998 68.4603 0.97998 61.5703V13.5903C0.97998 6.7103 6.33 1.07031 12.88 1.07031H58.49C65.03 1.07031 70.39 6.7003 70.39 13.5903V61.5703Z"
            fill="#918E81" />
        <path
            d="M70.39 61.5403C70.39 68.4203 65.04 74.0503 58.49 74.0503H12.88C6.34 74.0503 0.97998 68.4203 0.97998 61.5403V13.5803C0.97998 6.70029 6.33 1.07031 12.88 1.07031H58.49C65.03 1.07031 70.39 6.70029 70.39 13.5803V61.5403Z"
            fill="#908D80" />
        <path
            d="M70.39 61.5103C70.39 68.3903 65.04 74.0103 58.49 74.0103H12.88C6.34 74.0103 0.97998 68.3803 0.97998 61.5103V13.5803C0.97998 6.70029 6.33 1.07031 12.88 1.07031H58.49C65.03 1.07031 70.39 6.70029 70.39 13.5803V61.5103Z"
            fill="#908C7F" />
        <path
            d="M70.39 61.4803C70.39 68.3503 65.04 73.9803 58.49 73.9803H12.88C6.34 73.9803 0.97998 68.3603 0.97998 61.4803V13.5703C0.97998 6.70031 6.33 1.07031 12.88 1.07031H58.49C65.03 1.07031 70.39 6.69031 70.39 13.5703V61.4803Z"
            fill="#8F8B7E" />
        <path
            d="M70.39 61.4503C70.39 68.3203 65.04 73.9403 58.49 73.9403H12.88C6.34 73.9403 0.97998 68.3203 0.97998 61.4503V13.5603C0.97998 6.6903 6.33 1.07031 12.88 1.07031H58.49C65.03 1.07031 70.39 6.6903 70.39 13.5603V61.4503Z"
            fill="#8E8A7D" />
        <path
            d="M70.39 61.4205C70.39 68.2905 65.04 73.9105 58.49 73.9105H12.88C6.34 73.9105 0.97998 68.2905 0.97998 61.4205V13.5505C0.97998 6.68054 6.33 1.06055 12.88 1.06055H58.49C65.03 1.06055 70.39 6.68054 70.39 13.5505V61.4205Z"
            fill="#8D897C" />
        <path
            d="M70.39 61.3903C70.39 68.2503 65.04 73.8703 58.49 73.8703H12.88C6.34 73.8703 0.97998 68.2503 0.97998 61.3903V13.5503C0.97998 6.69029 6.33 1.07031 12.88 1.07031H58.49C65.03 1.07031 70.39 6.69029 70.39 13.5503V61.3903Z"
            fill="#8C887B" />
        <path
            d="M70.39 61.3703C70.39 68.2303 65.04 73.8503 58.49 73.8503H12.88C6.34 73.8503 0.97998 68.2403 0.97998 61.3703V13.5503C0.97998 6.69029 6.33 1.07031 12.88 1.07031H58.49C65.03 1.07031 70.39 6.68029 70.39 13.5503V61.3703Z"
            fill="#8B877A" />
        <path
            d="M70.39 61.3403C70.39 68.2003 65.04 73.8103 58.49 73.8103H12.88C6.34 73.8103 0.97998 68.2003 0.97998 61.3403V13.5403C0.97998 6.68031 6.33 1.07031 12.88 1.07031H58.49C65.03 1.07031 70.39 6.68031 70.39 13.5403V61.3403Z"
            fill="#8A8679" />
        <path
            d="M70.39 61.3103C70.39 68.1603 65.04 73.7703 58.49 73.7703H12.88C6.34 73.7703 0.97998 68.1603 0.97998 61.3103V13.5303C0.97998 6.6803 6.33 1.07031 12.88 1.07031H58.49C65.03 1.07031 70.39 6.6803 70.39 13.5303V61.3103Z"
            fill="#8A8578" />
        <path
            d="M70.39 61.2803C70.39 68.1303 65.04 73.7403 58.49 73.7403H12.88C6.34 73.7403 0.97998 68.1303 0.97998 61.2803V13.5303C0.97998 6.6803 6.33 1.07031 12.88 1.07031H58.49C65.03 1.07031 70.39 6.6803 70.39 13.5303V61.2803Z"
            fill="#898577" />
        <path
            d="M70.39 61.2503C70.39 68.1003 65.04 73.7003 58.49 73.7003H12.88C6.34 73.7003 0.97998 68.1003 0.97998 61.2503V13.5203C0.97998 6.67029 6.33 1.07031 12.88 1.07031H58.49C65.03 1.07031 70.39 6.67029 70.39 13.5203V61.2503Z"
            fill="#888476" />
        <path
            d="M70.39 61.2205C70.39 68.0705 65.04 73.6705 58.49 73.6705H12.88C6.34 73.6705 0.97998 68.0705 0.97998 61.2205V13.5106C0.97998 6.66056 6.33 1.06055 12.88 1.06055H58.49C65.03 1.06055 70.39 6.66056 70.39 13.5106V61.2205Z"
            fill="#878375" />
        <path
            d="M70.39 61.1906C70.39 68.0305 65.04 73.6306 58.49 73.6306H12.88C6.34 73.6306 0.97998 68.0305 0.97998 61.1906V13.5005C0.97998 6.66055 6.33 1.06055 12.88 1.06055H58.49C65.03 1.06055 70.39 6.66055 70.39 13.5005V61.1906Z"
            fill="#868274" />
        <path
            d="M70.39 61.1706C70.39 68.0106 65.04 73.6006 58.49 73.6006H12.88C6.34 73.6006 0.97998 68.0006 0.97998 61.1706V13.5106C0.97998 6.67059 6.33 1.08057 12.88 1.08057H58.49C65.03 1.08057 70.39 6.68059 70.39 13.5106V61.1706Z"
            fill="#858173" />
        <path
            d="M70.39 61.1403C70.39 67.9803 65.04 73.5703 58.49 73.5703H12.88C6.34 73.5703 0.97998 67.9803 0.97998 61.1403V13.5003C0.97998 6.66031 6.33 1.07031 12.88 1.07031H58.49C65.03 1.07031 70.39 6.66031 70.39 13.5003V61.1403Z"
            fill="#848072" />
        <path
            d="M70.39 61.1103C70.39 67.9403 65.04 73.5303 58.49 73.5303H12.88C6.34 73.5303 0.97998 67.9403 0.97998 61.1103V13.4903C0.97998 6.6603 6.33 1.07031 12.88 1.07031H58.49C65.03 1.07031 70.39 6.6603 70.39 13.4903V61.1103Z"
            fill="#837F71" />
        <path
            d="M70.39 61.0806C70.39 67.9106 65.04 73.5005 58.49 73.5005H12.88C6.34 73.5005 0.97998 67.9106 0.97998 61.0806V13.4806C0.97998 6.65056 6.33 1.06055 12.88 1.06055H58.49C65.03 1.06055 70.39 6.65056 70.39 13.4806V61.0806Z"
            fill="#837E70" />
        <path
            d="M70.39 61.0503C70.39 67.8803 65.04 73.4603 58.49 73.4603H12.88C6.34 73.4603 0.97998 67.8803 0.97998 61.0503V13.4803C0.97998 6.65032 6.33 1.07031 12.88 1.07031H58.49C65.03 1.07031 70.39 6.65032 70.39 13.4803V61.0503Z"
            fill="#827D6F" />
        <path
            d="M70.39 61.0203C70.39 67.8403 65.04 73.4203 58.49 73.4203H12.88C6.34 73.4203 0.97998 67.8403 0.97998 61.0203V13.4703C0.97998 6.65031 6.33 1.07031 12.88 1.07031H58.49C65.03 1.07031 70.39 6.65031 70.39 13.4703V61.0203Z"
            fill="#817C6E" />
        <path
            d="M70.39 60.9905C70.39 67.8105 65.04 73.3906 58.49 73.3906H12.88C6.34 73.3906 0.97998 67.8105 0.97998 60.9905V13.4605C0.97998 6.64054 6.33 1.06055 12.88 1.06055H58.49C65.03 1.06055 70.39 6.64054 70.39 13.4605V60.9905Z"
            fill="#807C6D" />
        <path
            d="M70.39 60.9703C70.39 67.7903 65.04 73.3603 58.49 73.3603H12.88C6.34 73.3603 0.97998 67.7803 0.97998 60.9703V13.4603C0.97998 6.6403 6.33 1.07031 12.88 1.07031H58.49C65.03 1.07031 70.39 6.6503 70.39 13.4603V60.9703Z"
            fill="#7F7B6C" />
        <path
            d="M70.39 60.9403C70.39 67.7503 65.04 73.3303 58.49 73.3303H12.88C6.34 73.3303 0.97998 67.7603 0.97998 60.9403V13.4603C0.97998 6.6503 6.33 1.07031 12.88 1.07031H58.49C65.03 1.07031 70.39 6.6403 70.39 13.4603V60.9403Z"
            fill="#7E7A6B" />
        <path
            d="M70.39 60.9103C70.39 67.7203 65.04 73.2903 58.49 73.2903H12.88C6.34 73.2903 0.97998 67.7203 0.97998 60.9103V13.4503C0.97998 6.64032 6.33 1.07031 12.88 1.07031H58.49C65.03 1.07031 70.39 6.64032 70.39 13.4503V60.9103Z"
            fill="#7D796A" />
        <path
            d="M70.39 60.8806C70.39 67.6906 65.04 73.2505 58.49 73.2505H12.88C6.34 73.2505 0.97998 67.6806 0.97998 60.8806V13.4406C0.97998 6.63055 6.33 1.06055 12.88 1.06055H58.49C65.03 1.06055 70.39 6.63055 70.39 13.4406V60.8806Z"
            fill="#7C7869" />
        <path
            d="M70.39 60.8503C70.39 67.6503 65.04 73.2203 58.49 73.2203H12.88C6.34 73.2203 0.97998 67.6503 0.97998 60.8503V13.4403C0.97998 6.64031 6.33 1.07031 12.88 1.07031H58.49C65.03 1.07031 70.39 6.64031 70.39 13.4403V60.8503Z"
            fill="#7C7768" />
        <path
            d="M70.39 60.8203C70.39 67.6203 65.04 73.1803 58.49 73.1803H12.88C6.34 73.1803 0.97998 67.6203 0.97998 60.8203V13.4303C0.97998 6.6303 6.33 1.07031 12.88 1.07031H58.49C65.03 1.07031 70.39 6.6303 70.39 13.4303V60.8203Z"
            fill="#7B7667" />
        <path
            d="M70.39 60.8003C70.39 67.6003 65.04 73.1603 58.49 73.1603H12.88C6.34 73.1603 0.97998 67.6003 0.97998 60.8003V13.4303C0.97998 6.6303 6.33 1.07031 12.88 1.07031H58.49C65.03 1.07031 70.39 6.6303 70.39 13.4303V60.8003Z"
            fill="#7A7566" />
        <path
            d="M70.39 60.7703C70.39 67.5603 65.04 73.1203 58.49 73.1203H12.88C6.34 73.1203 0.97998 67.5603 0.97998 60.7703V13.4203C0.97998 6.63032 6.33 1.07031 12.88 1.07031H58.49C65.03 1.07031 70.39 6.63032 70.39 13.4203V60.7703Z"
            fill="#797465" />
        <path
            d="M70.39 60.7403C70.39 67.5303 65.04 73.0903 58.49 73.0903H12.88C6.34 73.0903 0.97998 67.5303 0.97998 60.7403V13.4203C0.97998 6.63032 6.33 1.07031 12.88 1.07031H58.49C65.03 1.07031 70.39 6.63032 70.39 13.4203V60.7403Z"
            fill="#787364" />
        <path
            d="M70.39 60.7103C70.39 67.5003 65.04 73.0503 58.49 73.0503H12.88C6.34 73.0503 0.97998 67.5003 0.97998 60.7103V13.4103C0.97998 6.62031 6.33 1.07031 12.88 1.07031H58.49C65.03 1.07031 70.39 6.62031 70.39 13.4103V60.7103Z"
            fill="#777363" />
        <path
            d="M70.39 60.6803C70.39 67.4603 65.04 73.0103 58.49 73.0103H12.88C6.34 73.0103 0.97998 67.4603 0.97998 60.6803V13.4003C0.97998 6.6203 6.33 1.07031 12.88 1.07031H58.49C65.03 1.07031 70.39 6.6203 70.39 13.4003V60.6803Z"
            fill="#767262" />
        <path
            d="M70.39 60.6506C70.39 67.4306 65.04 72.9805 58.49 72.9805H12.88C6.34 72.9805 0.97998 67.4306 0.97998 60.6506V13.3906C0.97998 6.61056 6.33 1.06055 12.88 1.06055H58.49C65.03 1.06055 70.39 6.61056 70.39 13.3906V60.6506Z"
            fill="#767161" />
        <path
            d="M70.39 60.6203C70.39 67.4003 65.04 72.9403 58.49 72.9403H12.88C6.34 72.9403 0.97998 67.4003 0.97998 60.6203V13.3903C0.97998 6.61032 6.33 1.07031 12.88 1.07031H58.49C65.03 1.07031 70.39 6.62032 70.39 13.3903V60.6203Z"
            fill="#757060" />
        <path
            d="M70.39 60.6003C70.39 67.3703 65.04 72.9203 58.49 72.9203H12.88C6.34 72.9203 0.97998 67.3803 0.97998 60.6003V13.3903C0.97998 6.62032 6.33 1.07031 12.88 1.07031H58.49C65.03 1.07031 70.39 6.61032 70.39 13.3903V60.6003Z"
            fill="#746F5F" />
        <path
            d="M70.39 60.5703C70.39 67.3403 65.04 72.8803 58.49 72.8803H12.88C6.34 72.8803 0.97998 67.3403 0.97998 60.5703V13.3803C0.97998 6.61031 6.33 1.07031 12.88 1.07031H58.49C65.03 1.07031 70.39 6.61031 70.39 13.3803V60.5703Z"
            fill="#736E5E" />
        <path
            d="M70.39 60.5403C70.39 67.3103 65.04 72.8403 58.49 72.8403H12.88C6.34 72.8403 0.97998 67.3003 0.97998 60.5403V13.3703C0.97998 6.6003 6.33 1.07031 12.88 1.07031H58.49C65.03 1.07031 70.39 6.6103 70.39 13.3703V60.5403Z"
            fill="#726D5D" />
        <path
            d="M70.39 60.5103C70.39 67.2703 65.04 72.8103 58.49 72.8103H12.88C6.34 72.8103 0.97998 67.2803 0.97998 60.5103V13.3703C0.97998 6.6103 6.33 1.07031 12.88 1.07031H58.49C65.03 1.07031 70.39 6.6003 70.39 13.3703V60.5103Z"
            fill="#716C5C" />
        <path
            d="M70.39 60.4803C70.39 67.2403 65.04 72.7703 58.49 72.7703H12.88C6.34 72.7703 0.97998 67.2403 0.97998 60.4803V13.3603C0.97998 6.60029 6.33 1.07031 12.88 1.07031H58.49C65.03 1.07031 70.39 6.60029 70.39 13.3603V60.4803Z"
            fill="#706B5B" />
        <path
            d="M70.39 60.4506C70.39 67.2106 65.04 72.7405 58.49 72.7405H12.88C6.34 72.7405 0.97998 67.2106 0.97998 60.4506V13.3506C0.97998 6.59056 6.33 1.06055 12.88 1.06055H58.49C65.03 1.06055 70.39 6.59056 70.39 13.3506V60.4506Z"
            fill="#6F6A5A" />
        <path
            d="M70.39 60.4205C70.39 67.1705 65.04 72.7006 58.49 72.7006H12.88C6.34 72.7006 0.97998 67.1705 0.97998 60.4205V13.3405C0.97998 6.59055 6.33 1.06055 12.88 1.06055H58.49C65.03 1.06055 70.39 6.59055 70.39 13.3405V60.4205Z"
            fill="#6F6A59" />
        <path
            d="M70.39 60.4003C70.39 67.1503 65.04 72.6703 58.49 72.6703H12.88C6.34 72.6703 0.97998 67.1503 0.97998 60.4003V13.3503C0.97998 6.60031 6.33 1.07031 12.88 1.07031H58.49C65.03 1.07031 70.39 6.59031 70.39 13.3503V60.4003Z"
            fill="#6E6958" />
        <path
            d="M70.39 60.3703C70.39 67.1203 65.04 72.6403 58.49 72.6403H12.88C6.34 72.6403 0.97998 67.1203 0.97998 60.3703V13.3403C0.97998 6.5903 6.33 1.07031 12.88 1.07031H58.49C65.03 1.07031 70.39 6.5903 70.39 13.3403V60.3703Z"
            fill="#6D6857" />
        <path
            d="M70.39 60.3403C70.39 67.0803 65.04 72.6003 58.49 72.6003H12.88C6.34 72.6003 0.97998 67.0803 0.97998 60.3403V13.3303C0.97998 6.59029 6.33 1.07031 12.88 1.07031H58.49C65.03 1.07031 70.39 6.59029 70.39 13.3303V60.3403Z"
            fill="#6C6756" />
        <path
            d="M70.39 60.3103C70.39 67.0503 65.04 72.5703 58.49 72.5703H12.88C6.34 72.5703 0.97998 67.0503 0.97998 60.3103V13.3303C0.97998 6.59029 6.33 1.07031 12.88 1.07031H58.49C65.03 1.07031 70.39 6.59029 70.39 13.3303V60.3103Z"
            fill="#6B6655" />
        <path
            d="M70.39 60.2803C70.39 67.0203 65.04 72.5303 58.49 72.5303H12.88C6.34 72.5303 0.97998 67.0203 0.97998 60.2803V13.3203C0.97998 6.58031 6.33 1.07031 12.88 1.07031H58.49C65.03 1.07031 70.39 6.58031 70.39 13.3203V60.2803Z"
            fill="#6A6554" />
        <path
            d="M70.39 60.2505C70.39 66.9806 65.04 72.5005 58.49 72.5005H12.88C6.34 72.5005 0.97998 66.9905 0.97998 60.2505V13.3105C0.97998 6.58055 6.33 1.06055 12.88 1.06055H58.49C65.03 1.06055 70.39 6.57055 70.39 13.3105V60.2505Z"
            fill="#696453" />
        <path
            d="M70.39 60.2303C70.39 66.9603 65.04 72.4703 58.49 72.4703H12.88C6.34 72.4703 0.97998 66.9603 0.97998 60.2303V13.3103C0.97998 6.5803 6.33 1.07031 12.88 1.07031H58.49C65.03 1.07031 70.39 6.5803 70.39 13.3103V60.2303Z"
            fill="#686352" />
        <path
            d="M70.39 60.2006C70.39 66.9306 65.04 72.4306 58.49 72.4306H12.88C6.34 72.4306 0.97998 66.9306 0.97998 60.2006V13.3106C0.97998 6.58058 6.33 1.08057 12.88 1.08057H58.49C65.03 1.08057 70.39 6.59058 70.39 13.3106V60.2006Z"
            fill="#686251" />
        <path
            d="M70.39 60.1703C70.39 66.9003 65.04 72.4003 58.49 72.4003H12.88C6.34 72.4003 0.97998 66.9003 0.97998 60.1703V13.3003C0.97998 6.57029 6.33 1.07031 12.88 1.07031H58.49C65.03 1.07031 70.39 6.57029 70.39 13.3003V60.1703Z"
            fill="#676150" />
        <path
            d="M70.39 60.1403C70.39 66.8603 65.04 72.3603 58.49 72.3603H12.88C6.34 72.3603 0.97998 66.8603 0.97998 60.1403V13.2903C0.97998 6.57031 6.33 1.07031 12.88 1.07031H58.49C65.03 1.07031 70.39 6.57031 70.39 13.2903V60.1403Z"
            fill="#66614F" />
        <path
            d="M70.39 60.1105C70.39 66.8305 65.04 72.3306 58.49 72.3306H12.88C6.34 72.3306 0.97998 66.8305 0.97998 60.1105V13.2805C0.97998 6.56055 6.33 1.06055 12.88 1.06055H58.49C65.03 1.06055 70.39 6.56055 70.39 13.2805V60.1105Z"
            fill="#65604E" />
        <path
            d="M70.39 60.0803C70.39 66.8003 65.04 72.2903 58.49 72.2903H12.88C6.34 72.2903 0.97998 66.8003 0.97998 60.0803V13.2803C0.97998 6.5603 6.33 1.07031 12.88 1.07031H58.49C65.03 1.07031 70.39 6.5603 70.39 13.2803V60.0803Z"
            fill="#645F4D" />
        <path
            d="M70.39 60.0503C70.39 66.7603 65.04 72.2503 58.49 72.2503H12.88C6.34 72.2503 0.97998 66.7603 0.97998 60.0503V13.2703C0.97998 6.56029 6.33 1.07031 12.88 1.07031H58.49C65.03 1.07031 70.39 6.56029 70.39 13.2703V60.0503Z"
            fill="#635E4C" />
        <path
            d="M70.39 60.0303C70.39 66.7403 65.04 72.2303 58.49 72.2303H12.88C6.34 72.2303 0.97998 66.7403 0.97998 60.0303V13.2703C0.97998 6.56029 6.33 1.07031 12.88 1.07031H58.49C65.03 1.07031 70.39 6.56029 70.39 13.2703V60.0303Z"
            fill="#625D4B" />
        <path
            d="M70.39 60.0003C70.39 66.7103 65.04 72.1903 58.49 72.1903H12.88C6.34 72.1903 0.97998 66.7003 0.97998 60.0003V13.2603C0.97998 6.55031 6.33 1.07031 12.88 1.07031H58.49C65.03 1.07031 70.39 6.56032 70.39 13.2603V60.0003Z"
            fill="#625C4A" />
        <path
            d="M70.39 59.9703C70.39 66.6703 65.04 72.1603 58.49 72.1603H12.88C6.34 72.1603 0.97998 66.6803 0.97998 59.9703V13.2603C0.97998 6.56032 6.33 1.07031 12.88 1.07031H58.49C65.03 1.07031 70.39 6.55031 70.39 13.2603V59.9703Z"
            fill="#615B49" />
        <path
            d="M70.39 59.9403C70.39 66.6403 65.04 72.1203 58.49 72.1203H12.88C6.34 72.1203 0.97998 66.6403 0.97998 59.9403V13.2503C0.97998 6.55031 6.33 1.07031 12.88 1.07031H58.49C65.03 1.07031 70.39 6.55031 70.39 13.2503V59.9403Z"
            fill="#605A48" />
        <path
            d="M70.39 59.9103C70.39 66.6103 65.04 72.0803 58.49 72.0803H12.88C6.34 72.0803 0.97998 66.6003 0.97998 59.9103V13.2403C0.97998 6.5403 6.33 1.07031 12.88 1.07031H58.49C65.03 1.07031 70.39 6.5503 70.39 13.2403V59.9103Z"
            fill="#5F5947" />
        <path
            d="M70.39 59.8806C70.39 66.5706 65.04 72.0505 58.49 72.0505H12.88C6.34 72.0505 0.97998 66.5706 0.97998 59.8806V13.2306C0.97998 6.54056 6.33 1.06055 12.88 1.06055H58.49C65.03 1.06055 70.39 6.54056 70.39 13.2306V59.8806Z"
            fill="#5E5846" />
        <path
            d="M70.39 59.8503C70.39 66.5403 65.04 72.0103 58.49 72.0103H12.88C6.34 72.0103 0.97998 66.5403 0.97998 59.8503V13.2303C0.97998 6.54032 6.33 1.07031 12.88 1.07031H58.49C65.03 1.07031 70.39 6.54032 70.39 13.2303V59.8503Z"
            fill="#5D5845" />
        <path
            d="M70.39 59.8303C70.39 66.5203 65.04 71.9903 58.49 71.9903H12.88C6.34 71.9903 0.97998 66.5203 0.97998 59.8303V13.2303C0.97998 6.54032 6.33 1.07031 12.88 1.07031H58.49C65.03 1.07031 70.39 6.54032 70.39 13.2303V59.8303Z"
            fill="#5C5744" />
        <path
            d="M70.39 59.8003C70.39 66.4803 65.04 71.9503 58.49 71.9503H12.88C6.34 71.9503 0.97998 66.4803 0.97998 59.8003V13.2203C0.97998 6.54031 6.33 1.07031 12.88 1.07031H58.49C65.03 1.07031 70.39 6.54031 70.39 13.2203V59.8003Z"
            fill="#5B5643" />
        <path
            d="M70.39 59.7706C70.39 66.4506 65.04 71.9105 58.49 71.9105H12.88C6.34 71.9105 0.97998 66.4406 0.97998 59.7706V13.2105C0.97998 6.53054 6.33 1.06055 12.88 1.06055H58.49C65.03 1.06055 70.39 6.53054 70.39 13.2105V59.7706Z"
            fill="#5B5542" />
        <path
            d="M70.39 59.7403C70.39 66.4203 65.04 71.8803 58.49 71.8803H12.88C6.34 71.8803 0.97998 66.4203 0.97998 59.7403V13.2103C0.97998 6.5303 6.33 1.07031 12.88 1.07031H58.49C65.03 1.07031 70.39 6.5303 70.39 13.2103V59.7403Z"
            fill="#5A5441" />
        <path
            d="M70.39 59.7103C70.39 66.3803 65.04 71.8403 58.49 71.8403H12.88C6.34 71.8403 0.97998 66.3803 0.97998 59.7103V13.2003C0.97998 6.53032 6.33 1.07031 12.88 1.07031H58.49C65.03 1.07031 70.39 6.53032 70.39 13.2003V59.7103Z"
            fill="#595340" />
        <path
            d="M70.39 59.6805C70.39 66.3505 65.04 71.8105 58.49 71.8105H12.88C6.34 71.8105 0.97998 66.3505 0.97998 59.6805V13.1906C0.97998 6.52055 6.33 1.06055 12.88 1.06055H58.49C65.03 1.06055 70.39 6.52055 70.39 13.1906V59.6805Z"
            fill="#58523F" />
        <path
            d="M70.39 59.6503C70.39 66.3203 65.04 71.7703 58.49 71.7703H12.88C6.34 71.7703 0.97998 66.3203 0.97998 59.6503V13.1903C0.97998 6.52031 6.33 1.07031 12.88 1.07031H58.49C65.03 1.07031 70.39 6.52031 70.39 13.1903V59.6503Z"
            fill="#57513E" />
        <path
            d="M70.39 59.6303C70.39 66.2903 65.04 71.7503 58.49 71.7503H12.88C6.34 71.7503 0.97998 66.3003 0.97998 59.6303V13.1903C0.97998 6.53031 6.33 1.07031 12.88 1.07031H58.49C65.03 1.07031 70.39 6.52031 70.39 13.1903V59.6303Z"
            fill="#56503D" />
        <path
            d="M70.39 59.6003C70.39 66.2603 65.04 71.7103 58.49 71.7103H12.88C6.34 71.7103 0.97998 66.2603 0.97998 59.6003V13.1803C0.97998 6.5203 6.33 1.07031 12.88 1.07031H58.49C65.03 1.07031 70.39 6.5203 70.39 13.1803V59.6003Z"
            fill="#554F3C" />
        <path
            d="M70.39 59.5703C70.39 66.2303 65.04 71.6703 58.49 71.6703H12.88C6.34 71.6703 0.97998 66.2203 0.97998 59.5703V13.1703C0.97998 6.51032 6.33 1.07031 12.88 1.07031H58.49C65.03 1.07031 70.39 6.52032 70.39 13.1703V59.5703Z"
            fill="#544F3B" />
        <path
            d="M70.39 59.5403C70.39 66.1903 65.04 71.6403 58.49 71.6403H12.88C6.34 71.6403 0.97998 66.2003 0.97998 59.5403V13.1703C0.97998 6.52032 6.33 1.07031 12.88 1.07031H58.49C65.03 1.07031 70.39 6.51032 70.39 13.1703V59.5403Z"
            fill="#544E3A" />
        <path
            d="M70.39 59.5103C70.39 66.1603 65.04 71.6003 58.49 71.6003H12.88C6.34 71.6003 0.97998 66.1603 0.97998 59.5103V13.1603C0.97998 6.51031 6.33 1.07031 12.88 1.07031H58.49C65.03 1.07031 70.39 6.51031 70.39 13.1603V59.5103Z"
            fill="#534D39" />
        <path
            d="M70.39 59.4805C70.39 66.1305 65.04 71.5706 58.49 71.5706H12.88C6.34 71.5706 0.97998 66.1305 0.97998 59.4805V13.1505C0.97998 6.50054 6.33 1.06055 12.88 1.06055H58.49C65.03 1.06055 70.39 6.50054 70.39 13.1505V59.4805Z"
            fill="#524C38" />
        <path
            d="M70.39 59.4603C70.39 66.1003 65.04 71.5403 58.49 71.5403H12.88C6.34 71.5403 0.97998 66.1003 0.97998 59.4603V13.1503C0.97998 6.5103 6.33 1.07031 12.88 1.07031H58.49C65.03 1.07031 70.39 6.5103 70.39 13.1503V59.4603Z"
            fill="#514B37" />
        <path
            d="M70.39 59.4306C70.39 66.0706 65.04 71.5006 58.49 71.5006H12.88C6.34 71.5006 0.97998 66.0706 0.97998 59.4306V13.1506C0.97998 6.51057 6.33 1.08057 12.88 1.08057H58.49C65.03 1.08057 70.39 6.51057 70.39 13.1506V59.4306Z"
            fill="#504A36" />
        <path
            d="M70.39 59.4003C70.39 66.0403 65.04 71.4703 58.49 71.4703H12.88C6.34 71.4703 0.97998 66.0403 0.97998 59.4003V13.1403C0.97998 6.50032 6.33 1.07031 12.88 1.07031H58.49C65.03 1.07031 70.39 6.50032 70.39 13.1403V59.4003Z"
            fill="#4F4935" />
        <path
            d="M70.39 59.3703C70.39 66.0003 65.04 71.4303 58.49 71.4303H12.88C6.34 71.4303 0.97998 66.0003 0.97998 59.3703V13.1303C0.97998 6.50031 6.33 1.07031 12.88 1.07031H58.49C65.03 1.07031 70.39 6.50031 70.39 13.1303V59.3703Z"
            fill="#4E4834" />
        <path
            d="M70.39 59.3406C70.39 65.9706 65.04 71.4006 58.49 71.4006H12.88C6.34 71.4006 0.97998 65.9706 0.97998 59.3406V13.1205C0.97998 6.49054 6.33 1.06055 12.88 1.06055H58.49C65.03 1.06055 70.39 6.49054 70.39 13.1205V59.3406Z"
            fill="#4D4733" />
        <path
            d="M70.39 59.3103C70.39 65.9403 65.04 71.3603 58.49 71.3603H12.88C6.34 71.3603 0.97998 65.9403 0.97998 59.3103V13.1203C0.97998 6.4903 6.33 1.07031 12.88 1.07031H58.49C65.03 1.07031 70.39 6.4903 70.39 13.1203V59.3103Z"
            fill="#4D4632" />
        <path
            d="M70.39 59.2803C70.39 65.9003 65.04 71.3203 58.49 71.3203H12.88C6.34 71.3203 0.97998 65.9003 0.97998 59.2803V13.1103C0.97998 6.49029 6.33 1.07031 12.88 1.07031H58.49C65.03 1.07031 70.39 6.49029 70.39 13.1103V59.2803Z"
            fill="#4C4631" />
        <path
            d="M70.39 59.2603C70.39 65.8803 65.04 71.3003 58.49 71.3003H12.88C6.34 71.3003 0.97998 65.8803 0.97998 59.2603V13.1103C0.97998 6.49029 6.33 1.07031 12.88 1.07031H58.49C65.03 1.07031 70.39 6.49029 70.39 13.1103V59.2603Z"
            fill="#4B4530" />
        <path
            d="M70.39 59.2303C70.39 65.8503 65.04 71.2603 58.49 71.2603H12.88C6.34 71.2603 0.97998 65.8503 0.97998 59.2303V13.1003C0.97998 6.48031 6.33 1.07031 12.88 1.07031H58.49C65.03 1.07031 70.39 6.49031 70.39 13.1003V59.2303Z"
            fill="#4A442F" />
        <path
            d="M70.39 59.2003C70.39 65.8103 65.04 71.2303 58.49 71.2303H12.88C6.34 71.2303 0.97998 65.8203 0.97998 59.2003V13.1003C0.97998 6.49031 6.33 1.07031 12.88 1.07031H58.49C65.03 1.07031 70.39 6.48031 70.39 13.1003V59.2003Z"
            fill="#49432E" />
        <path
            d="M70.39 59.1703C70.39 65.7803 65.04 71.1903 58.49 71.1903H12.88C6.34 71.1903 0.97998 65.7803 0.97998 59.1703V13.0903C0.97998 6.4803 6.33 1.07031 12.88 1.07031H58.49C65.03 1.07031 70.39 6.4803 70.39 13.0903V59.1703Z"
            fill="#48422D" />
        <path
            d="M70.39 59.1406C70.39 65.7506 65.04 71.1506 58.49 71.1506H12.88C6.34 71.1506 0.97998 65.7406 0.97998 59.1406V13.0805C0.97998 6.47054 6.33 1.06055 12.88 1.06055H58.49C65.03 1.06055 70.39 6.47054 70.39 13.0805V59.1406Z"
            fill="#47412C" />
        <path
            d="M70.39 59.1105C70.39 65.7205 65.04 71.1205 58.49 71.1205H12.88C6.34 71.1205 0.97998 65.7205 0.97998 59.1105V13.0706C0.97998 6.46056 6.33 1.06055 12.88 1.06055H58.49C65.03 1.06055 70.39 6.46056 70.39 13.0706V59.1105Z"
            fill="#47402B" />
        <path
            d="M70.39 59.0803C70.39 65.6803 65.04 71.0803 58.49 71.0803H12.88C6.34 71.0803 0.97998 65.6803 0.97998 59.0803V13.0703C0.97998 6.47031 6.33 1.07031 12.88 1.07031H58.49C65.03 1.07031 70.39 6.47031 70.39 13.0703V59.0803Z"
            fill="#463F2A" />
        <path
            d="M70.39 59.0603C70.39 65.6603 65.04 71.0603 58.49 71.0603H12.88C6.34 71.0603 0.97998 65.6603 0.97998 59.0603V13.0703C0.97998 6.47031 6.33 1.07031 12.88 1.07031H58.49C65.03 1.07031 70.39 6.47031 70.39 13.0703V59.0603Z"
            fill="#453E29" />
        <path
            d="M70.39 59.0303C70.39 65.6303 65.04 71.0203 58.49 71.0203H12.88C6.34 71.0203 0.97998 65.6203 0.97998 59.0303V13.0603C0.97998 6.4603 6.33 1.07031 12.88 1.07031H58.49C65.03 1.07031 70.39 6.4703 70.39 13.0603V59.0303Z"
            fill="#443D28" />
        <path
            d="M70.39 59.0003C70.39 65.5903 65.04 70.9903 58.49 70.9903H12.88C6.34 70.9903 0.97998 65.6003 0.97998 59.0003V13.0603C0.97998 6.4703 6.33 1.07031 12.88 1.07031H58.49C65.03 1.07031 70.39 6.4603 70.39 13.0603V59.0003Z"
            fill="#433D27" />
        <path
            d="M70.39 58.9703C70.39 65.5603 65.04 70.9503 58.49 70.9503H12.88C6.34 70.9503 0.97998 65.5603 0.97998 58.9703V13.0503C0.97998 6.46029 6.33 1.07031 12.88 1.07031H58.49C65.03 1.07031 70.39 6.46029 70.39 13.0503V58.9703Z"
            fill="#423C26" />
        <path
            d="M70.39 58.9403C70.39 65.5303 65.04 70.9103 58.49 70.9103H12.88C6.34 70.9103 0.97998 65.5203 0.97998 58.9403V13.0403C0.97998 6.45031 6.33 1.07031 12.88 1.07031H58.49C65.03 1.07031 70.39 6.46031 70.39 13.0403V58.9403Z"
            fill="#413B25" />
        <path
            d="M70.39 58.9105C70.39 65.4905 65.04 70.8806 58.49 70.8806H12.88C6.34 70.8806 0.97998 65.4905 0.97998 58.9105V13.0305C0.97998 6.45055 6.33 1.06055 12.88 1.06055H58.49C65.03 1.06055 70.39 6.45055 70.39 13.0305V58.9105Z"
            fill="#403A24" />
        <path
            d="M70.39 58.8803C70.39 65.4603 65.04 70.8403 58.49 70.8403H12.88C6.34 70.8403 0.97998 65.4603 0.97998 58.8803V13.0303C0.97998 6.4503 6.33 1.07031 12.88 1.07031H58.49C65.03 1.07031 70.39 6.4503 70.39 13.0303V58.8803Z"
            fill="#403923" />
        <path
            d="M70.39 58.8603C70.39 65.4403 65.04 70.8203 58.49 70.8203H12.88C6.34 70.8203 0.97998 65.4403 0.97998 58.8603V13.0303C0.97998 6.4503 6.33 1.07031 12.88 1.07031H58.49C65.03 1.07031 70.39 6.4503 70.39 13.0303V58.8603Z"
            fill="#3F3822" />
        <path
            d="M70.39 58.8303C70.39 65.4003 65.04 70.7803 58.49 70.7803H12.88C6.34 70.7803 0.97998 65.4003 0.97998 58.8303V13.0203C0.97998 6.45029 6.33 1.07031 12.88 1.07031H58.49C65.03 1.07031 70.39 6.45029 70.39 13.0203V58.8303Z"
            fill="#3E3721" />
        <path
            d="M70.39 58.8003C70.39 65.3703 65.04 70.7403 58.49 70.7403H12.88C6.34 70.7403 0.97998 65.3703 0.97998 58.8003V13.0103C0.97998 6.44031 6.33 1.07031 12.88 1.07031H58.49C65.03 1.07031 70.39 6.45031 70.39 13.0103V58.8003Z"
            fill="#3D3620" />
        <path
            d="M70.39 58.7703C70.39 65.3403 65.04 70.7103 58.49 70.7103H12.88C6.34 70.7103 0.97998 65.3403 0.97998 58.7703V13.0103C0.97998 6.44031 6.33 1.07031 12.88 1.07031H58.49C65.03 1.07031 70.39 6.44031 70.39 13.0103V58.7703Z"
            fill="#3C351F" />
        <path
            d="M70.39 58.7403C70.39 65.3003 65.04 70.6703 58.49 70.6703H12.88C6.34 70.6703 0.97998 65.3003 0.97998 58.7403V13.0003C0.97998 6.44031 6.33 1.07031 12.88 1.07031H58.49C65.03 1.07031 70.39 6.44031 70.39 13.0003V58.7403Z"
            fill="#3B341E" />
        <path
            d="M70.39 58.7106C70.39 65.2706 65.04 70.6406 58.49 70.6406H12.88C6.34 70.6406 0.97998 65.2706 0.97998 58.7106V12.9905C0.97998 6.43054 6.33 1.06055 12.88 1.06055H58.49C65.03 1.06055 70.39 6.43054 70.39 12.9905V58.7106Z"
            fill="#3A341D" />
        <path
            d="M70.39 58.6903C70.39 65.2503 65.04 70.6103 58.49 70.6103H12.88C6.34 70.6103 0.97998 65.2503 0.97998 58.6903V12.9903C0.97998 6.4303 6.33 1.07031 12.88 1.07031H58.49C65.03 1.07031 70.39 6.4303 70.39 12.9903V58.6903Z"
            fill="#39331C" />
        <path
            d="M70.39 58.6603C70.39 65.2103 65.04 70.5703 58.49 70.5703H12.88C6.34 70.5703 0.97998 65.2103 0.97998 58.6603V12.9903C0.97998 6.4403 6.33 1.07031 12.88 1.07031H58.49C65.03 1.07031 70.39 6.4303 70.39 12.9903V58.6603Z"
            fill="#39321B" />
        <path
            d="M70.39 58.6303C70.39 65.1803 65.04 70.5403 58.49 70.5403H12.88C6.34 70.5403 0.97998 65.1803 0.97998 58.6303V12.9803C0.97998 6.43032 6.33 1.07031 12.88 1.07031H58.49C65.03 1.07031 70.39 6.43032 70.39 12.9803V58.6303Z"
            fill="#38311A" />
        <path
            d="M70.39 58.6003C70.39 65.1503 65.04 70.5003 58.49 70.5003H12.88C6.34 70.5003 0.97998 65.1403 0.97998 58.6003V12.9703C0.97998 6.42031 6.33 1.07031 12.88 1.07031H58.49C65.03 1.07031 70.39 6.43031 70.39 12.9703V58.6003Z"
            fill="#373019" />
        <path
            d="M12.89 1.07031H58.5C65.07 1.07031 70.4 6.40031 70.4 12.9703V58.5803C70.4 65.1503 65.07 70.4803 58.5 70.4803H12.89C6.32001 70.4803 0.98999 65.1503 0.98999 58.5803V12.9703C0.98999 6.40031 6.32001 1.07031 12.89 1.07031Z"
            fill="#362F18" />
    </g>
    <path
        d="M58.6899 0.67041H12.6899C6.06252 0.67041 0.689941 6.04299 0.689941 12.6704V58.6704C0.689941 65.2978 6.06252 70.6704 12.6899 70.6704H58.6899C65.3174 70.6704 70.6899 65.2978 70.6899 58.6704V12.6704C70.6899 6.04299 65.3174 0.67041 58.6899 0.67041Z"
        fill="url(#paint0_linear_44_1069)" />
    <path
        d="M14.01 2.67041H57.38C63.62 2.67041 68.6899 7.74041 68.6899 13.9804V57.3504C68.6899 63.5904 63.62 68.6604 57.38 68.6604H14.01C7.77001 68.6604 2.69995 63.5904 2.69995 57.3504V13.9804C2.69995 7.74041 7.77001 2.67041 14.01 2.67041Z"
        fill="#133155" />
    <defs>
        <linearGradient id="paint0_linear_44_1069" x1="-1049" y1="70.6704" x2="-1048" y2="0.670412"
            gradientUnits="userSpaceOnUse">
            <stop stop-color="#5A5137" />
            <stop offset="0.22" stop-color="#362F18" />
            <stop offset="1" stop-color="#E1C690" />
        </linearGradient>
    </defs>
</svg>