<svg width="53" height="45" viewBox="0 0 53 45" fill="none" xmlns="http://www.w3.org/2000/svg">
<path d="M15.65 25.5103C15.42 26.1203 14.86 26.5003 14.26 26.5003C14.08 26.5003 13.9 26.4703 13.72 26.4003C10.57 25.1403 7.79 23.1003 5.67 20.5203C3.54 17.9203 2.12 14.8203 1.56 11.5403L0.350007 4.36029C0.270007 3.91029 0.389993 3.45031 0.679993 3.10031C0.959993 2.75031 1.38001 2.55029 1.82001 2.55029H7.39999C7.50999 3.59029 7.64 4.63032 7.81 5.64032H3.60001L4.51 11.0003C5.46 16.6303 9.31 21.3103 14.8 23.5103C15.57 23.8203 15.95 24.7203 15.65 25.5103Z" fill="#F6B723"/>
<path d="M32.16 37.3405H20.98C22.33 36.6505 23.24 35.6004 23.24 34.0704V29.1704C24.39 29.5204 25.57 29.6904 26.74 29.6904C26.9 29.6904 27.06 29.6904 27.21 29.6804C28.11 29.6504 29.02 29.5004 29.9 29.2604V34.0704C29.9 35.6004 30.82 36.6505 32.16 37.3405Z" fill="#F6B723"/>
<path d="M43.36 0.050293H9.24C8.73 0.050293 8.32 0.490305 8.36 1.00031C8.4 1.52031 8.44 2.03031 8.5 2.54031C8.61 3.59031 8.75 4.62031 8.92 5.63031C9.88 11.3703 11.78 16.4403 14.3 20.3403C16.71 24.0703 19.69 26.7403 22.96 27.9103C23.05 27.9403 23.14 27.9703 23.23 28.0003V27.9103C24.4 28.3303 25.61 28.5603 26.84 28.5803C26.94 28.5803 27.05 28.5803 27.15 28.5803C27.99 28.5503 28.81 28.4203 29.61 28.2003C29.84 28.1403 30.07 28.0703 30.3 27.9903C37 25.6803 42.28 16.9803 43.83 5.64032C43.9 5.13032 43.96 4.6103 44.02 4.0903C44.07 3.5803 44.12 3.06031 44.16 2.54031C44.2 2.02031 44.23 1.50032 44.25 0.980316C44.27 0.480316 43.87 0.0603027 43.37 0.0603027L43.36 0.050293ZM34.22 10.2803L30.88 13.5703C30.78 13.6703 30.73 13.8203 30.75 13.9703L31.54 18.6203C31.6 18.9903 31.22 19.2703 30.9 19.0903L26.77 16.8903C26.64 16.8203 26.49 16.8203 26.36 16.8903L22.23 19.0903C21.9 19.2603 21.52 18.9803 21.59 18.6203L22.38 13.9703C22.4 13.8203 22.36 13.6803 22.25 13.5703L18.91 10.2803C18.65 10.0203 18.79 9.57032 19.16 9.51031L23.78 8.83029C23.92 8.81029 24.05 8.72029 24.11 8.58029L26.17 4.35031C26.33 4.02031 26.8 4.02031 26.97 4.35031L28.1 6.67032L28.6 7.69031L29.04 8.5903C29.11 8.7203 29.23 8.8103 29.37 8.8403L33.35 9.42032L33.99 9.51031C34.35 9.56032 34.5 10.0203 34.24 10.2803H34.22Z" fill="#F6B723"/>
<path d="M52.44 4.35052L51.23 11.5305C50.68 14.8105 49.26 17.9105 47.13 20.5105C45.01 23.0905 42.23 25.1305 39.08 26.3905C38.9 26.4605 38.72 26.4905 38.54 26.4905C37.94 26.4905 37.38 26.1105 37.15 25.5005C37.04 25.2105 37.02 24.9205 37.08 24.6405C37.42 24.2705 37.76 23.8805 38.08 23.4705C43.53 21.2505 47.35 16.5905 48.3 10.9905L49.21 5.63052H44.97C45.03 5.16052 45.09 4.68053 45.14 4.20053C45.2 3.65053 45.25 3.10053 45.29 2.54053H51C51.44 2.54053 51.86 2.74052 52.14 3.09052C52.42 3.44052 52.54 3.90052 52.47 4.35052H52.44Z" fill="#F6B723"/>
<path d="M37.77 38.4502H15.36V44.0502H37.77V38.4502Z" fill="#F6B723"/>
</svg>
