<svg width="46" height="45" viewBox="0 0 46 45" fill="none" xmlns="http://www.w3.org/2000/svg">
<path d="M36.91 44.1804C35.57 44.1804 34.24 44.1804 32.9 44.1804C32.87 44.1804 32.84 44.1504 32.84 44.1204V42.0004C32.84 41.2704 32.84 40.5504 32.84 39.8204C32.84 39.0904 32.84 38.3704 32.84 37.6404C32.84 36.9104 32.84 36.1904 32.84 35.4604C32.84 34.7304 32.84 34.0104 32.84 33.2804C32.84 32.5504 32.84 31.8304 32.84 31.1004C32.84 30.3704 32.84 29.6504 32.84 28.9204C32.84 28.1904 32.84 27.4704 32.84 26.7404C32.84 26.0104 32.84 25.2904 32.84 24.5604C32.84 23.8304 32.84 23.1104 32.84 22.3804C32.84 21.6504 32.84 20.9304 32.84 20.2004C32.84 20.1104 32.84 20.0204 32.84 19.9304C32.84 19.8604 32.83 19.7704 32.84 19.6904C32.87 19.5904 33.03 19.5204 33.1 19.4604C33.37 19.2604 33.65 19.0603 33.92 18.8603C34.46 18.4503 35 18.0404 35.53 17.6204C36.06 17.2004 36.58 16.7703 37.1 16.3303C37.62 15.8903 38.13 15.4504 38.63 15.0004C39.13 14.5504 39.63 14.0904 40.12 13.6204C40.26 13.4804 40.4 13.3504 40.55 13.2104C40.62 13.1404 40.69 13.0704 40.76 13.0004C40.79 12.9704 40.83 12.9304 40.86 12.9004C40.9 12.8604 40.96 12.9004 40.96 12.9404V43.8603C40.96 43.9403 40.96 44.0403 40.9 44.1003C40.83 44.1803 40.72 44.1804 40.62 44.1804C39.37 44.1804 38.13 44.1804 36.88 44.1804H36.91Z" fill="#F6B723"/>
<path d="M0.570007 25.0702C0.570007 24.7302 0.570017 24.3802 0.580017 24.0402C0.580017 23.9502 0.580017 23.8602 0.580017 23.7702C0.580017 23.7202 0.580017 23.6802 0.580017 23.6302C0.580017 23.6002 0.580037 23.5802 0.600037 23.5602C0.630037 23.5202 0.690042 23.5202 0.730042 23.5202C0.800041 23.5202 0.870002 23.5202 0.940002 23.5202C1.23 23.5202 1.52001 23.5102 1.82001 23.5002C2.11001 23.4902 2.40001 23.4802 2.70001 23.4602C2.99001 23.4402 3.28002 23.4302 3.58002 23.4102C3.87002 23.3902 4.16001 23.3702 4.45001 23.3402C4.74001 23.3102 5.03001 23.2902 5.32001 23.2602C5.61001 23.2302 5.9 23.2002 6.19 23.1602C6.48 23.1202 6.77 23.0902 7.06 23.0402C7.35 23.0002 7.64005 22.9602 7.93005 22.9102C8.22005 22.8602 8.51004 22.8202 8.79004 22.7602C9.08004 22.7102 9.37002 22.6602 9.65002 22.6002C9.94002 22.5402 10.22 22.4902 10.51 22.4302C10.8 22.3702 11.08 22.3102 11.37 22.2402C11.65 22.1702 11.94 22.1102 12.22 22.0402C12.5 21.9702 12.79 21.9002 13.07 21.8202C13.35 21.7402 13.63 21.6702 13.92 21.5902C14.2 21.5102 14.48 21.4302 14.76 21.3402C15.04 21.2602 15.32 21.1702 15.6 21.0802C15.88 20.9902 16.1601 20.9002 16.4301 20.8102C16.7101 20.7202 16.98 20.6202 17.26 20.5202C17.54 20.4202 17.81 20.3202 18.08 20.2202C18.35 20.1202 18.63 20.0102 18.9 19.9002C19.17 19.7902 19.44 19.6802 19.71 19.5702C19.98 19.4602 20.25 19.3402 20.52 19.2302C20.79 19.1202 21.06 18.9902 21.32 18.8702C21.59 18.7502 21.85 18.6302 22.12 18.5002C22.38 18.3702 22.65 18.2502 22.91 18.1202C23.17 17.9902 23.43 17.8602 23.69 17.7202C23.95 17.5902 24.21 17.4502 24.47 17.3102C24.73 17.1702 24.9801 17.0302 25.2401 16.8902C25.5001 16.7502 25.75 16.6002 26 16.4602C26.25 16.3102 26.5 16.1602 26.75 16.0102C27 15.8602 27.25 15.7102 27.5 15.5502C27.75 15.3902 27.9901 15.2402 28.2401 15.0802C28.4801 14.9202 28.73 14.7602 28.97 14.6002C29.21 14.4402 29.45 14.2702 29.69 14.1002C29.93 13.9302 30.17 13.7602 30.4 13.5902C30.64 13.4202 30.87 13.2402 31.11 13.0702C31.34 12.8902 31.58 12.7202 31.81 12.5402C32.04 12.3602 32.27 12.1802 32.5 12.0002C32.73 11.8202 32.9501 11.6302 33.1801 11.4402C33.4001 11.2502 33.63 11.0602 33.85 10.8702C34.07 10.6802 34.29 10.4902 34.51 10.2902C34.73 10.0902 34.94 9.90018 35.16 9.70018C35.37 9.50018 35.59 9.30017 35.8 9.10017C36.01 8.90017 36.2201 8.69016 36.4301 8.49016C36.6401 8.28016 36.84 8.08016 37.05 7.87016C37.25 7.66016 37.45 7.45018 37.65 7.23018C37.68 7.20018 37.97 6.89018 37.96 6.89018L35.15 4.33015C34.99 4.18015 35.04 3.92016 35.25 3.84016C38.65 2.59016 42.07 1.38018 45.51 0.230179C45.72 0.160179 45.93 0.340165 45.89 0.560165L43.91 11.2702C43.87 11.4902 43.61 11.5802 43.44 11.4402L40.59 9.12016C40.47 9.02016 40.3 9.04016 40.2 9.15016C30.21 19.8802 15.8 26.3802 1.13 26.7602C0.970005 26.7602 0.780044 26.7602 0.670044 26.6402C0.580044 26.5402 0.580017 26.3902 0.580017 26.2502C0.580017 25.8902 0.580027 25.5202 0.590027 25.1602C0.590027 25.1402 0.590027 25.1202 0.590027 25.1002L0.570007 25.0702Z" fill="#F6B723"/>
<path d="M30.08 32.8801C30.08 36.5601 30.08 40.24 30.08 43.92C30.08 44.18 30.08 44.1801 29.82 44.1801C27.29 44.1801 24.76 44.1801 22.23 44.1801C21.93 44.1801 21.9301 44.1801 21.9301 43.8801C21.9301 37.9701 21.93 32.0601 21.92 26.1501C21.92 25.7701 22.02 25.59 22.38 25.46C23.44 25.06 24.4701 24.5901 25.4901 24.0901C26.9001 23.4001 28.29 22.6601 29.63 21.8401C29.72 21.7801 29.82 21.7201 29.91 21.6701C30.04 21.5901 30.07 21.6001 30.07 21.7601C30.07 22.2601 30.07 22.7601 30.07 23.2601C30.07 26.4701 30.07 29.6801 30.07 32.8801H30.08Z" fill="#F6B723"/>
<path d="M19.17 35.4002C19.17 38.2502 19.17 41.0902 19.17 43.9402C19.17 44.0102 19.17 44.0902 19.11 44.1402C19.06 44.1802 19.0001 44.1802 18.9301 44.1802C16.3701 44.1802 13.82 44.1802 11.26 44.1802C11.2 44.1802 11.13 44.1802 11.09 44.1302C11.05 44.0902 11.05 44.0302 11.05 43.9702C11.05 43.7302 11.05 43.4902 11.05 43.2502C11.05 43.0102 11.05 42.7702 11.05 42.5202C11.05 42.2802 11.05 42.0402 11.05 41.7902C11.05 41.5502 11.05 41.3102 11.05 41.0602C11.05 40.8202 11.05 40.5802 11.05 40.3302C11.05 40.0902 11.05 39.8502 11.05 39.6002C11.05 39.3502 11.05 39.1202 11.05 38.8702C11.05 38.6302 11.05 38.3902 11.05 38.1402C11.05 37.9002 11.05 37.6602 11.05 37.4102C11.05 37.1702 11.05 36.9302 11.05 36.6802C11.05 36.4402 11.05 36.2002 11.05 35.9502C11.05 35.7102 11.05 35.4702 11.05 35.2202C11.05 34.9802 11.05 34.7402 11.05 34.4902C11.05 34.2502 11.05 34.0102 11.05 33.7602C11.05 33.5102 11.05 33.2802 11.05 33.0302C11.05 32.7802 11.05 32.5502 11.05 32.3002C11.05 32.0602 11.05 31.8202 11.05 31.5702C11.05 31.3302 11.05 31.0902 11.05 30.8402C11.05 30.6002 11.05 30.3602 11.05 30.1102C11.05 29.8702 11.05 29.6302 11.05 29.3802C11.05 29.2602 11.05 29.1402 11.05 29.0202C11.05 28.9602 11.05 28.9002 11.05 28.8402C11.05 28.7902 11.05 28.7502 11.05 28.7002C11.08 28.5502 11.26 28.5502 11.38 28.5202C11.61 28.4802 11.84 28.4402 12.07 28.4002C12.3 28.3602 12.53 28.3102 12.76 28.2702C12.99 28.2202 13.22 28.1802 13.45 28.1302C13.68 28.0802 13.91 28.0302 14.14 27.9802C14.37 27.9302 14.6 27.8802 14.82 27.8202C15.04 27.7602 15.28 27.7102 15.5 27.6502C15.72 27.5902 15.9501 27.5302 16.1801 27.4702C16.4101 27.4102 16.63 27.3502 16.86 27.2902C17.09 27.2302 17.31 27.1602 17.54 27.1002C17.76 27.0302 17.99 26.9702 18.21 26.9002C18.43 26.8302 18.66 26.7602 18.88 26.6902C19.01 26.6502 19.14 26.7402 19.14 26.8802V35.3402L19.17 35.4002Z" fill="#F6B723"/>
<path d="M8.30005 36.6302V43.8302C8.30005 44.0636 8.18669 44.1802 7.96002 44.1802C5.60002 44.1802 3.24 44.1802 0.869995 44.1802C0.579995 44.1802 0.580017 44.1802 0.580017 43.8902C0.580017 39.5002 0.580017 35.1102 0.580017 30.7202C0.580017 30.4302 0.579998 30.1402 0.559998 29.8502C0.559998 29.7102 0.61 29.6602 0.75 29.6502C1.83 29.6302 2.92 29.5902 4 29.5202C5.25 29.4302 6.50005 29.3302 7.74005 29.1402C7.87005 29.1202 8.00001 29.1102 8.14001 29.0902C8.25001 29.0702 8.30005 29.1202 8.30005 29.2402C8.30005 29.5602 8.30005 29.8802 8.30005 30.2102C8.30005 32.3502 8.30005 34.4902 8.30005 36.6302Z" fill="#F6B723"/>
</svg>
