<?xml version="1.0" encoding="UTF-8"?><svg xmlns="http://www.w3.org/2000/svg" xmlns:xlink="http://www.w3.org/1999/xlink" viewBox="0 0 70 77.75"><defs><style>.e{fill:#e5e4e1;}.f{fill:#a4a096;}.g{fill:#d9d7d3;}.h{fill:#5f5947;}.i{fill:#e9e8e6;}.j{fill:#4f4935;}.k{fill:#d8d6d2;}.l{fill:#898577;}.m{fill:#848072;}.n{fill:#fff;}.o{fill:#c8c6c0;}.p{fill:#e2e1de;}.q{fill:#554f3c;}.r{fill:#807c6d;}.s{fill:#65604e;}.t{fill:#b9b6ae;}.u{fill:#4d4632;}.v{fill:#48422d;}.w{fill:#726d5d;}.x{fill:#e8e8e5;}.y{fill:#c1bfb8;}.a`{fill:#686352;}.aa{fill:#3d3620;}.ab{fill:#dddcd8;}.ac{fill:#dad8d4;}.ad{fill:#524c38;}.ae{fill:#cac8c2;}.af{fill:#b7b4ac;}.ag{fill:#ecebe9;}.ah{fill:#c6c4bd;}.ai{fill:#cccac4;}.aj{fill:#57513e;}.ak{fill:#bab8b0;}.al{fill:#d3d1cc;}.am{fill:#bfbcb5;}.an{fill:#827d6f;}.ao{fill:#dbdad6;}.ap{fill:#d2d0cb;}.aq{fill:#39331c;}.ar{fill:#bebbb4;}.as{fill:#686251;}.at{fill:#5d5845;}.au{fill:#868274;}.av{fill:#8c887b;}.aw{fill:#d3d2cd;}.ax{fill:#3b341e;}.ay{fill:#403a24;}.b`{fill:#959185;}.ba{fill:#463f2a;}.bb{fill:#eae9e7;}.bc{fill:#918e81;}.bd{fill:#8d897c;}.be{fill:#66614f;}.bf{fill:#cecdc7;}.bg{fill:#9d998e;}.bh{fill:#544f3b;}.bi{fill:#6a6554;}.bj{fill:#d1cfca;}.bk{fill:#e3e2df;}.bl{fill:#e6e5e2;}.bm{fill:#e1dfdc;}.bn{fill:#a8a59b;}.bo{isolation:isolate;}.bp{fill:#9b978c;}.bq{fill:#adaaa1;}.br{fill:#eeeeec;}.bs{fill:#a3a095;}.bt{fill:#bbb9b1;}.bu{fill:#858173;}.bv{fill:#7c7768;}.bw{fill:#544e3a;}.bx{fill:#5b5542;}.by{fill:#d4d3ce;}.c`{fill:#9a978b;}.ca{fill:#5a5441;}.cb{fill:#aba99f;}.cc{fill:#e7e6e3;}.cd{fill:#cdccc6;}.ce{fill:#a19e93;}.cf{fill:#a29f94;}.cg{fill:#b2b0a7;}.ch{fill:#453e29;}.ci{fill:#615b49;}.cj{fill:#8a8679;}.ck{fill:#ebeae8;}.cl{fill:#6f6a5a;}.cm{fill:#c3c1ba;}.cn{fill:#a5a298;}.co{fill:#133155;}.cp{fill:#3e3721;}.cq{fill:#676150;}.cr{fill:#979488;}.cs{fill:#706b5b;}.ct{fill:#969286;}.cu{fill:#b0ada4;}.cv{fill:#bcbab2;}.cw{fill:#aeaba2;}.cx{fill:#8f8b7e;}.cy{fill:#56503d;}.d`{fill:#fbfafa;}.da{fill:#deddd9;}.db{fill:#d0cec9;}.dc{fill:#e4e3e0;}.dd{fill:#f3f2f1;}.de{fill:#514b37;}.df{fill:#f7f7f6;}.dg{fill:#938f83;}.dh{fill:#4b4530;}.di{fill:#f5f4f3;}.dj{fill:#7a7566;}.dk{fill:#dfdeda;}.dl{fill:#767161;}.dm{fill:#423c26;}.dn{fill:#878375;}.do{fill:#3c351f;}.dp{fill:#a5a197;}.dq{fill:#aba89e;}.dr{fill:#4a442f;}.ds{fill:#928e82;}.dt{fill:#b1aea5;}.du{fill:#433d27;}.dv{fill:#f6f6f5;}.dw{fill:#605a48;}.dx{fill:#f0f0ee;}.dy{fill:#413b25;}.e`{fill:#b2afa6;}.ea{fill:#c9c7c1;}.eb{fill:#d5d4cf;}.ec{fill:#c5c3bc;}.ed{fill:#716c5c;}.ee{fill:#5e5846;}.ef{fill:#8a8578;}.eg{fill:#f9f9f8;}.eh{fill:#b4b2a9;}.ei{fill:#635e4c;}.ej{fill:#f4f3f2;}.ek{fill:#7f7b6c;}.el{fill:#b9b7af;}.em{fill:#979387;}.en{fill:#403923;}.eo{fill:#736e5e;}.ep{fill:#cdcbc5;}.eq{fill:#afaca3;}.er{fill:#a7a49a;}.es{fill:#777363;}.et{fill:#b5b2aa;}.eu{fill:#fdfdfd;}.ev{fill:#b6b3ab;}.ew{fill:#f8f8f7;}.ex{fill:#c0beb7;}.ey{fill:#7d796a;}.f`{fill:#7b7667;}.fa{fill:#47402b;}.fb{fill:#a9a69c;}.fc{fill:#645f4d;}.fd{fill:#c2c0b9;}.fe{fill:#c6c4be;}.ff{fill:#7c7869;}.fg{fill:#797465;}.fh{fill:#58523f;}.fi{fill:#39321b;}.fj{fill:#a6a399;}.fk{fill:#8b877a;}.fl{fill:#373019;}.fm{fill:#cfcdc8;}.fn{fill:#6f6a59;}.fo{fill:#e8e7e4;}.fp{fill:url(#d);}.fq{fill:#9f9c91;}.fr{fill:#4d4733;}.fs{fill:#443d28;}.ft{fill:#bfbdb6;}.fu{fill:#edecea;}.fv{fill:#47412c;}.fw{fill:#908d80;}.fx{fill:#595340;}.fy{fill:#38311a;}.g`{fill:#b8b5ad;}.ga{fill:#989589;}.gb{fill:#4e4834;}.gc{fill:#e0dfdb;}.gd{fill:#6e6958;}.ge{fill:#f5f5f4;}.gf{fill:#b3b1a8;}.gg{fill:#5c5744;}.gh{fill:#eeedeb;}.gi{fill:#3f3822;}.gj{fill:#d6d5d0;}.gk{fill:#aaa79d;}.gl{fill:#cbc9c3;}.gm{fill:#9e9b90;}.gn{fill:#99968a;}.go{fill:#625c4a;}.gp{fill:#c7c5bf;}.gq{fill:#696453;}.gr{fill:#7e7a6b;}.gs{fill:#837e70;}.gt{fill:#9c988d;}.gu{fill:#6d6857;}.gv{fill:#625d4b;}.gw{fill:#f2f1f0;}.gx{fill:#3a341d;}.gy{fill:#fcfbfb;}.h`{fill:#4c4631;}.ha{fill:#c4c2bb;}.hb{fill:#d7d6d1;}.hc{fill:#888476;}.hd{fill:#817c6e;}.he{fill:#bdbbb3;}.hf{fill:#908c7f;}.hg{fill:#362f18;}.hh{fill:#a09d92;}.hi{fill:#efefed;}.hj{fill:#f1f1ef;}.hk{fill:#504a36;}.hl{fill:#9e9a8f;}.hm{fill:#e1e0dd;}.hn{fill:#746f5f;}.ho{fill:#534d39;}.hp{fill:#949084;}.hq{fill:#5b5643;}.hr{mix-blend-mode:multiply;}.hs{fill:#757060;}.ht{fill:#8e8a7d;}.hu{fill:#767262;}.hv{fill:#fafaf9;}.hw{fill:#dcdbd7;}.hx{fill:#6c6756;}.hy{fill:#6b6655;}.i`{fill:#aca9a0;}.ia{fill:#fefefe;}.ib{fill:#49432e;}.ic{fill:#787364;}.id{fill:#fcfcfc;}.ie{fill:#837f71;}.if{fill:#dad9d5;}</style><linearGradient id="d" x1="35" y1="70" x2="35" y2="0" gradientTransform="matrix(1, 0, 0, 1, 0, 0)" gradientUnits="userSpaceOnUse"><stop offset="0" stop-color="#5a5137"/><stop offset=".22" stop-color="#362f18"/><stop offset="1" stop-color="#e1c690"/></linearGradient></defs><g class="bo"><g id="a"/><g id="b"><g id="c"><g><g class="hr"><path class="n" d="M69.7,64.49c0,7.29-5.35,13.26-11.9,13.26H12.2c-6.54,0-11.9-5.97-11.9-13.26V13.66C.3,6.37,5.65,.4,12.2,.4H57.8c6.54,0,11.9,5.97,11.9,13.26v50.83Z"/><path class="ia" d="M69.7,64.46c0,7.29-5.35,13.25-11.9,13.25H12.2c-6.54,0-11.9-5.96-11.9-13.25V13.65C.3,6.36,5.65,.4,12.2,.4H57.8c6.54,0,11.9,5.96,11.9,13.25v50.81Z"/><path class="eu" d="M69.7,64.43c0,7.29-5.35,13.25-11.9,13.25H12.2c-6.54,0-11.9-5.96-11.9-13.25V13.65C.3,6.36,5.65,.4,12.2,.4H57.8c6.54,0,11.9,5.96,11.9,13.25v50.78Z"/><path class="id" d="M69.7,64.4c0,7.28-5.35,13.24-11.9,13.24H12.2c-6.54,0-11.9-5.96-11.9-13.24V13.64C.3,6.36,5.65,.4,12.2,.4H57.8c6.54,0,11.9,5.96,11.9,13.24v50.76Z"/><path class="gy" d="M69.7,64.38c0,7.28-5.35,13.24-11.9,13.24H12.2c-6.54,0-11.9-5.96-11.9-13.24V13.64C.3,6.36,5.65,.4,12.2,.4H57.8c6.54,0,11.9,5.96,11.9,13.24v50.74Z"/><path class="d`" d="M69.7,64.35c0,7.28-5.35,13.23-11.9,13.23H12.2c-6.54,0-11.9-5.95-11.9-13.23V13.63C.3,6.35,5.65,.4,12.2,.4H57.8c6.54,0,11.9,5.95,11.9,13.23v50.72Z"/><path class="hv" d="M69.7,64.32c0,7.27-5.35,13.22-11.9,13.22H12.2c-6.54,0-11.9-5.95-11.9-13.22V13.62C.3,6.35,5.65,.4,12.2,.4H57.8c6.54,0,11.9,5.95,11.9,13.22v50.69Z"/><path class="eg" d="M69.7,64.29c0,7.27-5.35,13.22-11.9,13.22H12.2c-6.54,0-11.9-5.95-11.9-13.22V13.62C.3,6.35,5.65,.4,12.2,.4H57.8c6.54,0,11.9,5.95,11.9,13.22v50.67Z"/><path class="ew" d="M69.7,64.26c0,7.27-5.35,13.21-11.9,13.21H12.2c-6.54,0-11.9-5.95-11.9-13.21V13.61C.3,6.35,5.65,.4,12.2,.4H57.8c6.54,0,11.9,5.95,11.9,13.21v50.65Z"/><path class="df" d="M69.7,64.23c0,7.26-5.35,13.21-11.9,13.21H12.2c-6.54,0-11.9-5.94-11.9-13.21V13.61C.3,6.34,5.65,.4,12.2,.4H57.8c6.54,0,11.9,5.94,11.9,13.21v50.63Z"/><path class="dv" d="M69.7,64.2c0,7.26-5.35,13.2-11.9,13.2H12.2c-6.54,0-11.9-5.94-11.9-13.2V13.6C.3,6.34,5.65,.4,12.2,.4H57.8c6.54,0,11.9,5.94,11.9,13.2v50.6Z"/><path class="ge" d="M69.7,64.18c0,7.26-5.35,13.19-11.9,13.19H12.2c-6.54,0-11.9-5.94-11.9-13.19V13.6C.3,6.34,5.65,.4,12.2,.4H57.8c6.54,0,11.9,5.94,11.9,13.2v50.58Z"/><path class="di" d="M69.7,64.15c0,7.25-5.35,13.19-11.9,13.19H12.2c-6.54,0-11.9-5.93-11.9-13.19V13.59C.3,6.34,5.65,.4,12.2,.4H57.8c6.54,0,11.9,5.94,11.9,13.19v50.56Z"/><path class="ej" d="M69.7,64.12c0,7.25-5.35,13.18-11.9,13.18H12.2c-6.54,0-11.9-5.93-11.9-13.18V13.58C.3,6.33,5.65,.4,12.2,.4H57.8c6.54,0,11.9,5.93,11.9,13.18v50.54Z"/><path class="dd" d="M69.7,64.09c0,7.25-5.35,13.18-11.9,13.18H12.2c-6.54,0-11.9-5.93-11.9-13.18V13.58C.3,6.33,5.65,.4,12.2,.4H57.8c6.54,0,11.9,5.93,11.9,13.18v50.51Z"/><path class="gw" d="M69.7,64.06c0,7.24-5.35,13.17-11.9,13.17H12.2c-6.54,0-11.9-5.93-11.9-13.17V13.57C.3,6.33,5.65,.4,12.2,.4H57.8c6.54,0,11.9,5.93,11.9,13.17v50.49Z"/><path class="hj" d="M69.7,64.03c0,7.24-5.35,13.17-11.9,13.17H12.2c-6.54,0-11.9-5.92-11.9-13.17V13.57C.3,6.32,5.65,.4,12.2,.4H57.8c6.54,0,11.9,5.92,11.9,13.17v50.47Z"/><path class="dx" d="M69.7,64c0,7.24-5.35,13.16-11.9,13.16H12.2c-6.54,0-11.9-5.92-11.9-13.16V13.56C.3,6.32,5.65,.4,12.2,.4H57.8c6.54,0,11.9,5.92,11.9,13.16v50.45Z"/><path class="hi" d="M69.7,63.98c0,7.23-5.35,13.15-11.9,13.15H12.2c-6.54,0-11.9-5.92-11.9-13.15V13.55C.3,6.32,5.65,.4,12.2,.4H57.8c6.54,0,11.9,5.92,11.9,13.15V63.98Z"/><path class="br" d="M69.7,63.95c0,7.23-5.35,13.15-11.9,13.15H12.2c-6.54,0-11.9-5.92-11.9-13.15V13.55C.3,6.32,5.65,.4,12.2,.4H57.8c6.54,0,11.9,5.92,11.9,13.15V63.95Z"/><path class="gh" d="M69.7,63.92c0,7.23-5.35,13.14-11.9,13.14H12.2c-6.54,0-11.9-5.91-11.9-13.14V13.54C.3,6.31,5.65,.4,12.2,.4H57.8c6.54,0,11.9,5.91,11.9,13.14V63.92Z"/><path class="fu" d="M69.7,63.89c0,7.22-5.35,13.14-11.9,13.14H12.2c-6.54,0-11.9-5.91-11.9-13.14V13.54C.3,6.31,5.65,.4,12.2,.4H57.8c6.54,0,11.9,5.91,11.9,13.14V63.89Z"/><path class="ag" d="M69.7,63.86c0,7.22-5.35,13.13-11.9,13.13H12.2c-6.54,0-11.9-5.91-11.9-13.13V13.53C.3,6.31,5.65,.4,12.2,.4H57.8c6.54,0,11.9,5.91,11.9,13.13V63.86Z"/><path class="ck" d="M69.7,63.83c0,7.22-5.35,13.12-11.9,13.12H12.2c-6.54,0-11.9-5.91-11.9-13.12V13.52C.3,6.31,5.65,.4,12.2,.4H57.8c6.54,0,11.9,5.91,11.9,13.12V63.83Z"/><path class="bb" d="M69.7,63.81c0,7.22-5.35,13.12-11.9,13.12H12.2c-6.54,0-11.9-5.9-11.9-13.12V13.52C.3,6.3,5.65,.4,12.2,.4H57.8c6.54,0,11.9,5.9,11.9,13.12V63.81Z"/><path class="i" d="M69.7,63.78c0,7.21-5.35,13.11-11.9,13.11H12.2c-6.54,0-11.9-5.9-11.9-13.11V13.51C.3,6.3,5.65,.4,12.2,.4H57.8c6.54,0,11.9,5.9,11.9,13.11V63.78Z"/><path class="x" d="M69.7,63.75c0,7.21-5.35,13.11-11.9,13.11H12.2c-6.54,0-11.9-5.9-11.9-13.11V13.51C.3,6.3,5.65,.4,12.2,.4H57.8c6.54,0,11.9,5.9,11.9,13.11V63.75Z"/><path class="fo" d="M69.7,63.72c0,7.21-5.35,13.1-11.9,13.1H12.2c-6.54,0-11.9-5.9-11.9-13.1V13.5C.3,6.3,5.65,.4,12.2,.4H57.8c6.54,0,11.9,5.9,11.9,13.1V63.72Z"/><path class="cc" d="M69.7,63.69c0,7.2-5.35,13.09-11.9,13.09H12.2c-6.54,0-11.9-5.89-11.9-13.09V13.5C.3,6.29,5.65,.4,12.2,.4H57.8c6.54,0,11.9,5.89,11.9,13.1V63.69Z"/><path class="bl" d="M69.7,63.66c0,7.2-5.35,13.09-11.9,13.09H12.2c-6.54,0-11.9-5.89-11.9-13.09V13.49C.3,6.29,5.65,.4,12.2,.4H57.8c6.54,0,11.9,5.89,11.9,13.09V63.66Z"/><path class="e" d="M69.7,63.63c0,7.2-5.35,13.08-11.9,13.08H12.2c-6.54,0-11.9-5.89-11.9-13.08V13.48C.3,6.29,5.65,.4,12.2,.4H57.8c6.54,0,11.9,5.89,11.9,13.08V63.63Z"/><path class="dc" d="M69.7,63.61c0,7.19-5.35,13.08-11.9,13.08H12.2c-6.54,0-11.9-5.88-11.9-13.08V13.48C.3,6.28,5.65,.4,12.2,.4H57.8c6.54,0,11.9,5.88,11.9,13.08V63.61Z"/><path class="bk" d="M69.7,63.58c0,7.19-5.35,13.07-11.9,13.07H12.2c-6.54,0-11.9-5.88-11.9-13.07V13.47C.3,6.28,5.65,.4,12.2,.4H57.8c6.54,0,11.9,5.88,11.9,13.07V63.58Z"/><path class="p" d="M69.7,63.55c0,7.19-5.35,13.07-11.9,13.07H12.2c-6.54,0-11.9-5.88-11.9-13.07V13.47C.3,6.28,5.65,.4,12.2,.4H57.8c6.54,0,11.9,5.88,11.9,13.07V63.55Z"/><path class="hm" d="M69.7,63.52c0,7.18-5.35,13.06-11.9,13.06H12.2c-6.54,0-11.9-5.88-11.9-13.06V13.46C.3,6.28,5.65,.4,12.2,.4H57.8c6.54,0,11.9,5.88,11.9,13.06V63.52Z"/><path class="bm" d="M69.7,63.49c0,7.18-5.35,13.05-11.9,13.05H12.2c-6.54,0-11.9-5.87-11.9-13.05V13.45C.3,6.27,5.65,.4,12.2,.4H57.8c6.54,0,11.9,5.87,11.9,13.05V63.49Z"/><path class="gc" d="M69.7,63.46c0,7.18-5.35,13.05-11.9,13.05H12.2c-6.54,0-11.9-5.87-11.9-13.05V13.45C.3,6.27,5.65,.4,12.2,.4H57.8c6.54,0,11.9,5.87,11.9,13.05V63.46Z"/><path class="dk" d="M69.7,63.43c0,7.17-5.35,13.04-11.9,13.04H12.2c-6.54,0-11.9-5.87-11.9-13.04V13.44C.3,6.27,5.65,.4,12.2,.4H57.8c6.54,0,11.9,5.87,11.9,13.04V63.43Z"/><path class="da" d="M69.7,63.41c0,7.17-5.35,13.04-11.9,13.04H12.2c-6.54,0-11.9-5.87-11.9-13.04V13.44C.3,6.27,5.65,.4,12.2,.4H57.8c6.54,0,11.9,5.87,11.9,13.04V63.41Z"/><path class="ab" d="M69.7,63.38c0,7.17-5.35,13.03-11.9,13.03H12.2c-6.54,0-11.9-5.86-11.9-13.03V13.43C.3,6.26,5.65,.4,12.2,.4H57.8c6.54,0,11.9,5.86,11.9,13.03V63.38Z"/><path class="hw" d="M69.7,63.35c0,7.16-5.35,13.02-11.9,13.02H12.2c-6.54,0-11.9-5.86-11.9-13.02V13.42C.3,6.26,5.65,.4,12.2,.4H57.8c6.54,0,11.9,5.86,11.9,13.02V63.35Z"/><path class="ao" d="M69.7,63.32c0,7.16-5.35,13.02-11.9,13.02H12.2c-6.54,0-11.9-5.86-11.9-13.02V13.42C.3,6.26,5.65,.4,12.2,.4H57.8c6.54,0,11.9,5.86,11.9,13.02V63.32Z"/><path class="if" d="M69.7,63.29c0,7.16-5.35,13.01-11.9,13.01H12.2c-6.54,0-11.9-5.86-11.9-13.01V13.41C.3,6.26,5.65,.4,12.2,.4H57.8c6.54,0,11.9,5.86,11.9,13.01V63.29Z"/><path class="ac" d="M69.7,63.26c0,7.15-5.35,13.01-11.9,13.01H12.2c-6.54,0-11.9-5.85-11.9-13.01V13.41C.3,6.25,5.65,.4,12.2,.4H57.8c6.54,0,11.9,5.85,11.9,13.01V63.26Z"/><path class="g" d="M69.7,63.24c0,7.15-5.35,13-11.9,13H12.2c-6.54,0-11.9-5.85-11.9-13V13.4C.3,6.25,5.65,.4,12.2,.4H57.8c6.54,0,11.9,5.85,11.9,13V63.24Z"/><path class="k" d="M69.7,63.21c0,7.15-5.35,12.99-11.9,12.99H12.2c-6.54,0-11.9-5.85-11.9-12.99V13.39C.3,6.25,5.65,.4,12.2,.4H57.8c6.54,0,11.9,5.85,11.9,12.99V63.21Z"/><path class="hb" d="M69.7,63.18c0,7.14-5.35,12.99-11.9,12.99H12.2c-6.54,0-11.9-5.84-11.9-12.99V13.39C.3,6.25,5.65,.4,12.2,.4H57.8c6.54,0,11.9,5.85,11.9,12.99V63.18Z"/><path class="gj" d="M69.7,63.15c0,7.14-5.35,12.98-11.9,12.98H12.2c-6.54,0-11.9-5.84-11.9-12.98V13.38C.3,6.24,5.65,.4,12.2,.4H57.8c6.54,0,11.9,5.84,11.9,12.98V63.15Z"/><path class="eb" d="M69.7,63.12c0,7.14-5.35,12.98-11.9,12.98H12.2c-6.54,0-11.9-5.84-11.9-12.98V13.38C.3,6.24,5.65,.4,12.2,.4H57.8c6.54,0,11.9,5.84,11.9,12.98V63.12Z"/><path class="by" d="M69.7,63.09c0,7.13-5.35,12.97-11.9,12.97H12.2c-6.54,0-11.9-5.84-11.9-12.97V13.37C.3,6.24,5.65,.4,12.2,.4H57.8c6.54,0,11.9,5.84,11.9,12.97V63.09Z"/><path class="aw" d="M69.7,63.06c0,7.13-5.35,12.96-11.9,12.96H12.2c-6.54,0-11.9-5.83-11.9-12.96V13.37C.3,6.23,5.65,.4,12.2,.4H57.8c6.54,0,11.9,5.83,11.9,12.97V63.06Z"/><path class="al" d="M69.7,63.04c0,7.13-5.35,12.96-11.9,12.96H12.2c-6.54,0-11.9-5.83-11.9-12.96V13.36C.3,6.23,5.65,.4,12.2,.4H57.8c6.54,0,11.9,5.83,11.9,12.96V63.04Z"/><path class="ap" d="M69.7,63.01c0,7.12-5.35,12.95-11.9,12.95H12.2c-6.54,0-11.9-5.83-11.9-12.95V13.35C.3,6.23,5.65,.4,12.2,.4H57.8c6.54,0,11.9,5.83,11.9,12.95V63.01Z"/><path class="bj" d="M69.7,62.98c0,7.12-5.35,12.95-11.9,12.95H12.2c-6.54,0-11.9-5.83-11.9-12.95V13.35C.3,6.23,5.65,.4,12.2,.4H57.8c6.54,0,11.9,5.83,11.9,12.95V62.98Z"/><path class="db" d="M69.7,62.95c0,7.12-5.35,12.94-11.9,12.94H12.2c-6.54,0-11.9-5.82-11.9-12.94V13.34C.3,6.22,5.65,.4,12.2,.4H57.8c6.54,0,11.9,5.82,11.9,12.94V62.95Z"/><path class="fm" d="M69.7,62.92c0,7.11-5.35,12.94-11.9,12.94H12.2c-6.54,0-11.9-5.82-11.9-12.94V13.34C.3,6.22,5.65,.4,12.2,.4H57.8c6.54,0,11.9,5.82,11.9,12.94V62.92Z"/><path class="bf" d="M69.7,62.89c0,7.11-5.35,12.93-11.9,12.93H12.2c-6.54,0-11.9-5.82-11.9-12.93V13.33C.3,6.22,5.65,.4,12.2,.4H57.8c6.54,0,11.9,5.82,11.9,12.93V62.89Z"/><path class="cd" d="M69.7,62.86c0,7.11-5.35,12.92-11.9,12.92H12.2c-6.54,0-11.9-5.82-11.9-12.92V13.32C.3,6.22,5.65,.4,12.2,.4H57.8c6.54,0,11.9,5.82,11.9,12.92V62.86Z"/><path class="ep" d="M69.7,62.84c0,7.1-5.35,12.92-11.9,12.92H12.2c-6.54,0-11.9-5.81-11.9-12.92V13.32C.3,6.21,5.65,.4,12.2,.4H57.8c6.54,0,11.9,5.81,11.9,12.92V62.84Z"/><path class="ai" d="M69.7,62.81c0,7.1-5.35,12.91-11.9,12.91H12.2c-6.54,0-11.9-5.81-11.9-12.91V13.31C.3,6.21,5.65,.4,12.2,.4H57.8c6.54,0,11.9,5.81,11.9,12.91V62.81Z"/><path class="gl" d="M69.7,62.78c0,7.1-5.35,12.91-11.9,12.91H12.2c-6.54,0-11.9-5.81-11.9-12.91V13.31C.3,6.21,5.65,.4,12.2,.4H57.8c6.54,0,11.9,5.81,11.9,12.91V62.78Z"/><path class="ae" d="M69.7,62.75c0,7.1-5.35,12.9-11.9,12.9H12.2c-6.54,0-11.9-5.8-11.9-12.9V13.3C.3,6.21,5.65,.4,12.2,.4H57.8c6.54,0,11.9,5.81,11.9,12.9V62.75Z"/><path class="ea" d="M69.7,62.72c0,7.09-5.35,12.89-11.9,12.89H12.2c-6.54,0-11.9-5.8-11.9-12.89V13.29C.3,6.2,5.65,.4,12.2,.4H57.8c6.54,0,11.9,5.8,11.9,12.89V62.72Z"/><path class="o" d="M69.7,62.69c0,7.09-5.35,12.89-11.9,12.89H12.2c-6.54,0-11.9-5.8-11.9-12.89V13.29C.3,6.2,5.65,.4,12.2,.4H57.8c6.54,0,11.9,5.8,11.9,12.89V62.69Z"/><path class="gp" d="M69.7,62.66c0,7.09-5.35,12.88-11.9,12.88H12.2c-6.54,0-11.9-5.8-11.9-12.88V13.28C.3,6.2,5.65,.4,12.2,.4H57.8c6.54,0,11.9,5.8,11.9,12.88V62.66Z"/><path class="fe" d="M69.7,62.64c0,7.08-5.35,12.88-11.9,12.88H12.2c-6.54,0-11.9-5.79-11.9-12.88V13.28C.3,6.19,5.65,.4,12.2,.4H57.8c6.54,0,11.9,5.79,11.9,12.88V62.64Z"/><path class="ah" d="M69.7,62.61c0,7.08-5.35,12.87-11.9,12.87H12.2c-6.54,0-11.9-5.79-11.9-12.87V13.27C.3,6.19,5.65,.4,12.2,.4H57.8c6.54,0,11.9,5.79,11.9,12.87V62.61Z"/><path class="ec" d="M69.7,62.58c0,7.08-5.35,12.86-11.9,12.86H12.2c-6.54,0-11.9-5.79-11.9-12.86V13.26C.3,6.19,5.65,.4,12.2,.4H57.8c6.54,0,11.9,5.79,11.9,12.87V62.58Z"/><path class="ha" d="M69.7,62.55c0,7.07-5.35,12.86-11.9,12.86H12.2c-6.54,0-11.9-5.79-11.9-12.86V13.26C.3,6.19,5.65,.4,12.2,.4H57.8c6.54,0,11.9,5.79,11.9,12.86V62.55Z"/><path class="cm" d="M69.7,62.52c0,7.07-5.35,12.85-11.9,12.85H12.2c-6.54,0-11.9-5.78-11.9-12.85V13.25C.3,6.18,5.65,.4,12.2,.4H57.8c6.54,0,11.9,5.78,11.9,12.85V62.52Z"/><path class="fd" d="M69.7,62.49c0,7.07-5.35,12.85-11.9,12.85H12.2c-6.54,0-11.9-5.78-11.9-12.85V13.25C.3,6.18,5.65,.4,12.2,.4H57.8c6.54,0,11.9,5.78,11.9,12.85V62.49Z"/><path class="y" d="M69.7,62.47c0,7.06-5.35,12.84-11.9,12.84H12.2c-6.54,0-11.9-5.78-11.9-12.84V13.24C.3,6.18,5.65,.4,12.2,.4H57.8c6.54,0,11.9,5.78,11.9,12.84V62.47Z"/><path class="ex" d="M69.7,62.44c0,7.06-5.35,12.84-11.9,12.84H12.2c-6.54,0-11.9-5.78-11.9-12.84V13.24C.3,6.18,5.65,.4,12.2,.4H57.8c6.54,0,11.9,5.78,11.9,12.84V62.44Z"/><path class="ft" d="M69.7,62.41c0,7.06-5.35,12.83-11.9,12.83H12.2c-6.54,0-11.9-5.77-11.9-12.83V13.23C.3,6.17,5.65,.4,12.2,.4H57.8c6.54,0,11.9,5.77,11.9,12.83V62.41Z"/><path class="am" d="M69.7,62.38c0,7.05-5.35,12.82-11.9,12.82H12.2c-6.54,0-11.9-5.77-11.9-12.82V13.22C.3,6.17,5.65,.4,12.2,.4H57.8c6.54,0,11.9,5.77,11.9,12.82V62.38Z"/><path class="ar" d="M69.7,62.35c0,7.05-5.35,12.82-11.9,12.82H12.2c-6.54,0-11.9-5.77-11.9-12.82V13.22C.3,6.17,5.65,.4,12.2,.4H57.8c6.54,0,11.9,5.77,11.9,12.82V62.35Z"/><path class="he" d="M69.7,62.32c0,7.05-5.35,12.81-11.9,12.81H12.2c-6.54,0-11.9-5.77-11.9-12.81V13.21C.3,6.17,5.65,.4,12.2,.4H57.8c6.54,0,11.9,5.77,11.9,12.81V62.32Z"/><path class="cv" d="M69.7,62.29c0,7.04-5.35,12.81-11.9,12.81H12.2c-6.54,0-11.9-5.76-11.9-12.81V13.21C.3,6.16,5.65,.4,12.2,.4H57.8c6.54,0,11.9,5.76,11.9,12.81V62.29Z"/><path class="bt" d="M69.7,62.27c0,7.04-5.35,12.8-11.9,12.8H12.2c-6.54,0-11.9-5.76-11.9-12.8V13.2C.3,6.16,5.65,.4,12.2,.4H57.8c6.54,0,11.9,5.76,11.9,12.8V62.27Z"/><path class="ak" d="M69.7,62.24c0,7.04-5.35,12.79-11.9,12.79H12.2c-6.54,0-11.9-5.76-11.9-12.79V13.19C.3,6.16,5.65,.4,12.2,.4H57.8c6.54,0,11.9,5.76,11.9,12.79V62.24Z"/><path class="el" d="M69.7,62.21c0,7.03-5.35,12.79-11.9,12.79H12.2c-6.54,0-11.9-5.75-11.9-12.79V13.19C.3,6.15,5.65,.4,12.2,.4H57.8c6.54,0,11.9,5.75,11.9,12.79V62.21Z"/><path class="t" d="M69.7,62.18c0,7.03-5.35,12.78-11.9,12.78H12.2c-6.54,0-11.9-5.75-11.9-12.78V13.18C.3,6.15,5.65,.4,12.2,.4H57.8c6.54,0,11.9,5.75,11.9,12.78V62.18Z"/><path class="g`" d="M69.7,62.15c0,7.03-5.35,12.78-11.9,12.78H12.2c-6.54,0-11.9-5.75-11.9-12.78V13.18C.3,6.15,5.65,.4,12.2,.4H57.8c6.54,0,11.9,5.75,11.9,12.78V62.15Z"/><path class="af" d="M69.7,62.12c0,7.02-5.35,12.77-11.9,12.77H12.2c-6.54,0-11.9-5.75-11.9-12.77V13.17C.3,6.15,5.65,.4,12.2,.4H57.8c6.54,0,11.9,5.75,11.9,12.77V62.12Z"/><path class="ev" d="M69.7,62.09c0,7.02-5.35,12.76-11.9,12.76H12.2c-6.54,0-11.9-5.74-11.9-12.76V13.16C.3,6.14,5.65,.4,12.2,.4H57.8c6.54,0,11.9,5.74,11.9,12.76V62.09Z"/><path class="et" d="M69.7,62.07c0,7.02-5.35,12.76-11.9,12.76H12.2c-6.54,0-11.9-5.74-11.9-12.76V13.16C.3,6.14,5.65,.4,12.2,.4H57.8c6.54,0,11.9,5.74,11.9,12.76V62.07Z"/><path class="eh" d="M69.7,62.04c0,7.01-5.35,12.75-11.9,12.75H12.2c-6.54,0-11.9-5.74-11.9-12.75V13.15C.3,6.14,5.65,.4,12.2,.4H57.8c6.54,0,11.9,5.74,11.9,12.75V62.04Z"/><path class="gf" d="M69.7,62.01c0,7.01-5.35,12.75-11.9,12.75H12.2c-6.54,0-11.9-5.74-11.9-12.75V13.15C.3,6.14,5.65,.4,12.2,.4H57.8c6.54,0,11.9,5.74,11.9,12.75V62.01Z"/><path class="cg" d="M69.7,61.98c0,7.01-5.35,12.74-11.9,12.74H12.2c-6.54,0-11.9-5.73-11.9-12.74V13.14C.3,6.13,5.65,.4,12.2,.4H57.8c6.54,0,11.9,5.73,11.9,12.74V61.98Z"/><path class="e`" d="M69.7,61.95c0,7-5.35,12.73-11.9,12.73H12.2c-6.54,0-11.9-5.73-11.9-12.73V13.14C.3,6.13,5.65,.4,12.2,.4H57.8c6.54,0,11.9,5.73,11.9,12.74V61.95Z"/><path class="dt" d="M69.7,61.92c0,7-5.35,12.73-11.9,12.73H12.2c-6.54,0-11.9-5.73-11.9-12.73V13.13C.3,6.13,5.65,.4,12.2,.4H57.8c6.54,0,11.9,5.73,11.9,12.73V61.92Z"/><path class="cu" d="M69.7,61.89c0,7-5.35,12.72-11.9,12.72H12.2c-6.54,0-11.9-5.73-11.9-12.72V13.12C.3,6.13,5.65,.4,12.2,.4H57.8c6.54,0,11.9,5.73,11.9,12.72V61.89Z"/><path class="eq" d="M69.7,61.87c0,6.99-5.35,12.72-11.9,12.72H12.2c-6.54,0-11.9-5.72-11.9-12.72V13.12C.3,6.12,5.65,.4,12.2,.4H57.8c6.54,0,11.9,5.72,11.9,12.72V61.87Z"/><path class="cw" d="M69.7,61.84c0,6.99-5.35,12.71-11.9,12.71H12.2c-6.54,0-11.9-5.72-11.9-12.71V13.11C.3,6.12,5.65,.4,12.2,.4H57.8c6.54,0,11.9,5.72,11.9,12.71V61.84Z"/><path class="bq" d="M69.7,61.81c0,6.99-5.35,12.71-11.9,12.71H12.2c-6.54,0-11.9-5.72-11.9-12.71V13.11C.3,6.12,5.65,.4,12.2,.4H57.8c6.54,0,11.9,5.72,11.9,12.71V61.81Z"/><path class="i`" d="M69.7,61.78c0,6.98-5.35,12.7-11.9,12.7H12.2c-6.54,0-11.9-5.71-11.9-12.7V13.1C.3,6.11,5.65,.4,12.2,.4H57.8c6.54,0,11.9,5.72,11.9,12.7V61.78Z"/><path class="cb" d="M69.7,61.75c0,6.98-5.35,12.69-11.9,12.69H12.2c-6.54,0-11.9-5.71-11.9-12.69V13.09C.3,6.11,5.65,.4,12.2,.4H57.8c6.54,0,11.9,5.71,11.9,12.69V61.75Z"/><path class="dq" d="M69.7,61.72c0,6.98-5.35,12.69-11.9,12.69H12.2c-6.54,0-11.9-5.71-11.9-12.69V13.09C.3,6.11,5.65,.4,12.2,.4H57.8c6.54,0,11.9,5.71,11.9,12.69V61.72Z"/><path class="gk" d="M69.7,61.7c0,6.98-5.35,12.68-11.9,12.68H12.2c-6.54,0-11.9-5.71-11.9-12.68V13.08C.3,6.11,5.65,.4,12.2,.4H57.8c6.54,0,11.9,5.71,11.9,12.68V61.7Z"/><path class="fb" d="M69.7,61.67c0,6.97-5.35,12.68-11.9,12.68H12.2c-6.54,0-11.9-5.7-11.9-12.68V13.08C.3,6.1,5.65,.4,12.2,.4H57.8c6.54,0,11.9,5.7,11.9,12.68V61.67Z"/><path class="bn" d="M69.7,61.64c0,6.97-5.35,12.67-11.9,12.67H12.2c-6.54,0-11.9-5.7-11.9-12.67V13.07C.3,6.1,5.65,.4,12.2,.4H57.8c6.54,0,11.9,5.7,11.9,12.67V61.64Z"/><path class="er" d="M69.7,61.61c0,6.97-5.35,12.66-11.9,12.66H12.2c-6.54,0-11.9-5.7-11.9-12.66V13.06C.3,6.1,5.65,.4,12.2,.4H57.8c6.54,0,11.9,5.7,11.9,12.66V61.61Z"/><path class="fj" d="M69.7,61.58c0,6.96-5.35,12.66-11.9,12.66H12.2c-6.54,0-11.9-5.7-11.9-12.66V13.06C.3,6.1,5.65,.4,12.2,.4H57.8c6.54,0,11.9,5.7,11.9,12.66V61.58Z"/><path class="cn" d="M69.7,61.55c0,6.96-5.35,12.65-11.9,12.65H12.2c-6.54,0-11.9-5.69-11.9-12.65V13.05C.3,6.09,5.65,.4,12.2,.4H57.8c6.54,0,11.9,5.69,11.9,12.65V61.55Z"/><path class="dp" d="M69.7,61.52c0,6.96-5.35,12.65-11.9,12.65H12.2c-6.54,0-11.9-5.69-11.9-12.65V13.05C.3,6.09,5.65,.4,12.2,.4H57.8c6.54,0,11.9,5.69,11.9,12.65V61.52Z"/><path class="f" d="M69.7,61.5c0,6.95-5.35,12.64-11.9,12.64H12.2c-6.54,0-11.9-5.69-11.9-12.64V13.04C.3,6.09,5.65,.4,12.2,.4H57.8c6.54,0,11.9,5.69,11.9,12.64V61.5Z"/><path class="bs" d="M69.7,61.47c0,6.95-5.35,12.63-11.9,12.63H12.2c-6.54,0-11.9-5.69-11.9-12.63V13.03C.3,6.09,5.65,.4,12.2,.4H57.8c6.54,0,11.9,5.69,11.9,12.63V61.47Z"/><path class="cf" d="M69.7,61.44c0,6.95-5.35,12.63-11.9,12.63H12.2c-6.54,0-11.9-5.68-11.9-12.63V13.03C.3,6.08,5.65,.4,12.2,.4H57.8c6.54,0,11.9,5.68,11.9,12.63V61.44Z"/><path class="ce" d="M69.7,61.41c0,6.94-5.35,12.62-11.9,12.62H12.2c-6.54,0-11.9-5.68-11.9-12.62V13.02C.3,6.08,5.65,.4,12.2,.4H57.8c6.54,0,11.9,5.68,11.9,12.62V61.41Z"/><path class="hh" d="M69.7,61.38c0,6.94-5.35,12.62-11.9,12.62H12.2c-6.54,0-11.9-5.68-11.9-12.62V13.02C.3,6.08,5.65,.4,12.2,.4H57.8c6.54,0,11.9,5.68,11.9,12.62V61.38Z"/><path class="fq" d="M69.7,61.35c0,6.94-5.35,12.61-11.9,12.61H12.2c-6.54,0-11.9-5.67-11.9-12.61V13.01C.3,6.08,5.65,.4,12.2,.4H57.8c6.54,0,11.9,5.68,11.9,12.61V61.35Z"/><path class="gm" d="M69.7,61.32c0,6.93-5.35,12.6-11.9,12.6H12.2c-6.54,0-11.9-5.67-11.9-12.6V13.01C.3,6.07,5.65,.4,12.2,.4H57.8c6.54,0,11.9,5.67,11.9,12.61V61.32Z"/><path class="hl" d="M69.7,61.3c0,6.93-5.35,12.6-11.9,12.6H12.2c-6.54,0-11.9-5.67-11.9-12.6V13C.3,6.07,5.65,.4,12.2,.4H57.8c6.54,0,11.9,5.67,11.9,12.6V61.3Z"/><path class="bg" d="M69.7,61.27c0,6.93-5.35,12.59-11.9,12.59H12.2c-6.54,0-11.9-5.67-11.9-12.59V12.99C.3,6.07,5.65,.4,12.2,.4H57.8c6.54,0,11.9,5.67,11.9,12.59V61.27Z"/><path class="gt" d="M69.7,61.24c0,6.92-5.35,12.59-11.9,12.59H12.2c-6.54,0-11.9-5.66-11.9-12.59V12.99C.3,6.06,5.65,.4,12.2,.4H57.8c6.54,0,11.9,5.66,11.9,12.59V61.24Z"/><path class="bp" d="M69.7,61.21c0,6.92-5.35,12.58-11.9,12.58H12.2c-6.54,0-11.9-5.66-11.9-12.58V12.98C.3,6.06,5.65,.4,12.2,.4H57.8c6.54,0,11.9,5.66,11.9,12.58V61.21Z"/><path class="c`" d="M69.7,61.18c0,6.92-5.35,12.58-11.9,12.58H12.2c-6.54,0-11.9-5.66-11.9-12.58V12.98C.3,6.06,5.65,.4,12.2,.4H57.8c6.54,0,11.9,5.66,11.9,12.58V61.18Z"/><path class="gn" d="M69.7,61.15c0,6.91-5.35,12.57-11.9,12.57H12.2c-6.54,0-11.9-5.66-11.9-12.57V12.97C.3,6.06,5.65,.4,12.2,.4H57.8c6.54,0,11.9,5.66,11.9,12.57V61.15Z"/><path class="ga" d="M69.7,61.12c0,6.91-5.35,12.56-11.9,12.56H12.2c-6.54,0-11.9-5.65-11.9-12.56V12.96C.3,6.05,5.65,.4,12.2,.4H57.8c6.54,0,11.9,5.65,11.9,12.56V61.12Z"/><path class="cr" d="M69.7,61.1c0,6.91-5.35,12.56-11.9,12.56H12.2c-6.54,0-11.9-5.65-11.9-12.56V12.96C.3,6.05,5.65,.4,12.2,.4H57.8c6.54,0,11.9,5.65,11.9,12.56V61.1Z"/><path class="em" d="M69.7,61.07c0,6.9-5.35,12.55-11.9,12.55H12.2c-6.54,0-11.9-5.65-11.9-12.55V12.95C.3,6.05,5.65,.4,12.2,.4H57.8c6.54,0,11.9,5.65,11.9,12.55V61.07Z"/><path class="ct" d="M69.7,61.04c0,6.9-5.35,12.55-11.9,12.55H12.2c-6.54,0-11.9-5.65-11.9-12.55V12.95C.3,6.05,5.65,.4,12.2,.4H57.8c6.54,0,11.9,5.65,11.9,12.55V61.04Z"/><path class="b`" d="M69.7,61.01c0,6.9-5.35,12.54-11.9,12.54H12.2c-6.54,0-11.9-5.64-11.9-12.54V12.94C.3,6.04,5.65,.4,12.2,.4H57.8c6.54,0,11.9,5.64,11.9,12.54V61.01Z"/><path class="hp" d="M69.7,60.98c0,6.89-5.35,12.53-11.9,12.53H12.2c-6.54,0-11.9-5.64-11.9-12.53V12.93C.3,6.04,5.65,.4,12.2,.4H57.8c6.54,0,11.9,5.64,11.9,12.53V60.98Z"/><path class="dg" d="M69.7,60.95c0,6.89-5.35,12.53-11.9,12.53H12.2c-6.54,0-11.9-5.64-11.9-12.53V12.93C.3,6.04,5.65,.4,12.2,.4H57.8c6.54,0,11.9,5.64,11.9,12.53V60.95Z"/><path class="ds" d="M69.7,60.93c0,6.89-5.35,12.52-11.9,12.52H12.2c-6.54,0-11.9-5.63-11.9-12.52V12.92C.3,6.04,5.65,.4,12.2,.4H57.8c6.54,0,11.9,5.64,11.9,12.52V60.93Z"/><path class="bc" d="M69.7,60.9c0,6.88-5.35,12.52-11.9,12.52H12.2c-6.54,0-11.9-5.63-11.9-12.52V12.92C.3,6.03,5.65,.4,12.2,.4H57.8c6.54,0,11.9,5.63,11.9,12.52V60.9Z"/><path class="fw" d="M69.7,60.87c0,6.88-5.35,12.51-11.9,12.51H12.2c-6.54,0-11.9-5.63-11.9-12.51V12.91C.3,6.03,5.65,.4,12.2,.4H57.8c6.54,0,11.9,5.63,11.9,12.51V60.87Z"/><path class="hf" d="M69.7,60.84c0,6.88-5.35,12.5-11.9,12.5H12.2c-6.54,0-11.9-5.63-11.9-12.5V12.91C.3,6.03,5.65,.4,12.2,.4H57.8c6.54,0,11.9,5.63,11.9,12.51V60.84Z"/><path class="cx" d="M69.7,60.81c0,6.87-5.35,12.5-11.9,12.5H12.2c-6.54,0-11.9-5.62-11.9-12.5V12.9C.3,6.02,5.65,.4,12.2,.4H57.8c6.54,0,11.9,5.62,11.9,12.5V60.81Z"/><path class="ht" d="M69.7,60.78c0,6.87-5.35,12.49-11.9,12.49H12.2c-6.54,0-11.9-5.62-11.9-12.49V12.89C.3,6.02,5.65,.4,12.2,.4H57.8c6.54,0,11.9,5.62,11.9,12.49V60.78Z"/><path class="bd" d="M69.7,60.75c0,6.87-5.35,12.49-11.9,12.49H12.2c-6.54,0-11.9-5.62-11.9-12.49V12.89C.3,6.02,5.65,.4,12.2,.4H57.8c6.54,0,11.9,5.62,11.9,12.49V60.75Z"/><path class="av" d="M69.7,60.73c0,6.86-5.35,12.48-11.9,12.48H12.2c-6.54,0-11.9-5.62-11.9-12.48V12.88C.3,6.02,5.65,.4,12.2,.4H57.8c6.54,0,11.9,5.62,11.9,12.48V60.73Z"/><path class="fk" d="M69.7,60.7c0,6.86-5.35,12.48-11.9,12.48H12.2c-6.54,0-11.9-5.61-11.9-12.48V12.88C.3,6.01,5.65,.4,12.2,.4H57.8c6.54,0,11.9,5.61,11.9,12.48V60.7Z"/><path class="cj" d="M69.7,60.67c0,6.86-5.35,12.47-11.9,12.47H12.2c-6.54,0-11.9-5.61-11.9-12.47V12.87C.3,6.01,5.65,.4,12.2,.4H57.8c6.54,0,11.9,5.61,11.9,12.47V60.67Z"/><path class="ef" d="M69.7,60.64c0,6.85-5.35,12.46-11.9,12.46H12.2c-6.54,0-11.9-5.61-11.9-12.46V12.86C.3,6.01,5.65,.4,12.2,.4H57.8c6.54,0,11.9,5.61,11.9,12.46V60.64Z"/><path class="l" d="M69.7,60.61c0,6.85-5.35,12.46-11.9,12.46H12.2c-6.54,0-11.9-5.61-11.9-12.46V12.86C.3,6.01,5.65,.4,12.2,.4H57.8c6.54,0,11.9,5.61,11.9,12.46V60.61Z"/><path class="hc" d="M69.7,60.58c0,6.85-5.35,12.45-11.9,12.45H12.2c-6.54,0-11.9-5.6-11.9-12.45V12.85C.3,6,5.65,.4,12.2,.4H57.8c6.54,0,11.9,5.6,11.9,12.45V60.58Z"/><path class="dn" d="M69.7,60.55c0,6.85-5.35,12.45-11.9,12.45H12.2c-6.54,0-11.9-5.6-11.9-12.45V12.85C.3,6,5.65,.4,12.2,.4H57.8c6.54,0,11.9,5.6,11.9,12.45V60.55Z"/><path class="au" d="M69.7,60.53c0,6.84-5.35,12.44-11.9,12.44H12.2c-6.54,0-11.9-5.6-11.9-12.44V12.84C.3,6,5.65,.4,12.2,.4H57.8c6.54,0,11.9,5.6,11.9,12.44V60.53Z"/><path class="bu" d="M69.7,60.5c0,6.84-5.35,12.43-11.9,12.43H12.2c-6.54,0-11.9-5.6-11.9-12.43V12.83C.3,6,5.65,.4,12.2,.4H57.8c6.54,0,11.9,5.6,11.9,12.43V60.5Z"/><path class="m" d="M69.7,60.47c0,6.84-5.35,12.43-11.9,12.43H12.2c-6.54,0-11.9-5.59-11.9-12.43V12.83C.3,5.99,5.65,.4,12.2,.4H57.8c6.54,0,11.9,5.59,11.9,12.43V60.47Z"/><path class="ie" d="M69.7,60.44c0,6.83-5.35,12.42-11.9,12.42H12.2c-6.54,0-11.9-5.59-11.9-12.42V12.82C.3,5.99,5.65,.4,12.2,.4H57.8c6.54,0,11.9,5.59,11.9,12.42V60.44Z"/><path class="gs" d="M69.7,60.41c0,6.83-5.35,12.42-11.9,12.42H12.2c-6.54,0-11.9-5.59-11.9-12.42V12.82C.3,5.99,5.65,.4,12.2,.4H57.8c6.54,0,11.9,5.59,11.9,12.42V60.41Z"/><path class="an" d="M69.7,60.38c0,6.83-5.35,12.41-11.9,12.41H12.2c-6.54,0-11.9-5.58-11.9-12.41V12.81C.3,5.98,5.65,.4,12.2,.4H57.8c6.54,0,11.9,5.58,11.9,12.41V60.38Z"/><path class="hd" d="M69.7,60.36c0,6.82-5.35,12.4-11.9,12.4H12.2c-6.54,0-11.9-5.58-11.9-12.4V12.8C.3,5.98,5.65,.4,12.2,.4H57.8c6.54,0,11.9,5.58,11.9,12.4V60.36Z"/><path class="r" d="M69.7,60.33c0,6.82-5.35,12.4-11.9,12.4H12.2c-6.54,0-11.9-5.58-11.9-12.4V12.8C.3,5.98,5.65,.4,12.2,.4H57.8c6.54,0,11.9,5.58,11.9,12.4V60.33Z"/><path class="ek" d="M69.7,60.3c0,6.82-5.35,12.39-11.9,12.39H12.2c-6.54,0-11.9-5.58-11.9-12.39V12.79C.3,5.98,5.65,.4,12.2,.4H57.8c6.54,0,11.9,5.58,11.9,12.39V60.3Z"/><path class="gr" d="M69.7,60.27c0,6.81-5.35,12.39-11.9,12.39H12.2c-6.54,0-11.9-5.57-11.9-12.39V12.79C.3,5.97,5.65,.4,12.2,.4H57.8c6.54,0,11.9,5.57,11.9,12.39V60.27Z"/><path class="ey" d="M69.7,60.24c0,6.81-5.35,12.38-11.9,12.38H12.2c-6.54,0-11.9-5.57-11.9-12.38V12.78C.3,5.97,5.65,.4,12.2,.4H57.8c6.54,0,11.9,5.57,11.9,12.38V60.24Z"/><path class="ff" d="M69.7,60.21c0,6.81-5.35,12.37-11.9,12.37H12.2c-6.54,0-11.9-5.57-11.9-12.37V12.78C.3,5.97,5.65,.4,12.2,.4H57.8c6.54,0,11.9,5.57,11.9,12.38V60.21Z"/><path class="bv" d="M69.7,60.18c0,6.8-5.35,12.37-11.9,12.37H12.2c-6.54,0-11.9-5.57-11.9-12.37V12.77C.3,5.97,5.65,.4,12.2,.4H57.8c6.54,0,11.9,5.57,11.9,12.37V60.18Z"/><path class="f`" d="M69.7,60.16c0,6.8-5.35,12.36-11.9,12.36H12.2c-6.54,0-11.9-5.56-11.9-12.36V12.76C.3,5.96,5.65,.4,12.2,.4H57.8c6.54,0,11.9,5.56,11.9,12.36V60.16Z"/><path class="dj" d="M69.7,60.13c0,6.8-5.35,12.36-11.9,12.36H12.2c-6.54,0-11.9-5.56-11.9-12.36V12.76C.3,5.96,5.65,.4,12.2,.4H57.8c6.54,0,11.9,5.56,11.9,12.36V60.13Z"/><path class="fg" d="M69.7,60.1c0,6.79-5.35,12.35-11.9,12.35H12.2c-6.54,0-11.9-5.56-11.9-12.35V12.75C.3,5.96,5.65,.4,12.2,.4H57.8c6.54,0,11.9,5.56,11.9,12.35V60.1Z"/><path class="ic" d="M69.7,60.07c0,6.79-5.35,12.35-11.9,12.35H12.2c-6.54,0-11.9-5.56-11.9-12.35V12.75C.3,5.96,5.65,.4,12.2,.4H57.8c6.54,0,11.9,5.56,11.9,12.35V60.07Z"/><path class="es" d="M69.7,60.04c0,6.79-5.35,12.34-11.9,12.34H12.2c-6.54,0-11.9-5.55-11.9-12.34V12.74C.3,5.95,5.65,.4,12.2,.4H57.8c6.54,0,11.9,5.55,11.9,12.34V60.04Z"/><path class="hu" d="M69.7,60.01c0,6.78-5.35,12.33-11.9,12.33H12.2c-6.54,0-11.9-5.55-11.9-12.33V12.73C.3,5.95,5.65,.4,12.2,.4H57.8c6.54,0,11.9,5.55,11.9,12.33V60.01Z"/><path class="dl" d="M69.7,59.98c0,6.78-5.35,12.33-11.9,12.33H12.2c-6.54,0-11.9-5.55-11.9-12.33V12.73C.3,5.95,5.65,.4,12.2,.4H57.8c6.54,0,11.9,5.55,11.9,12.33V59.98Z"/><path class="hs" d="M69.7,59.96c0,6.78-5.35,12.32-11.9,12.32H12.2c-6.54,0-11.9-5.54-11.9-12.32V12.72C.3,5.95,5.65,.4,12.2,.4H57.8c6.54,0,11.9,5.55,11.9,12.32V59.96Z"/><path class="hn" d="M69.7,59.93c0,6.77-5.35,12.32-11.9,12.32H12.2c-6.54,0-11.9-5.54-11.9-12.32V12.72C.3,5.94,5.65,.4,12.2,.4H57.8c6.54,0,11.9,5.54,11.9,12.32V59.93Z"/><path class="eo" d="M69.7,59.9c0,6.77-5.35,12.31-11.9,12.31H12.2c-6.54,0-11.9-5.54-11.9-12.31V12.71C.3,5.94,5.65,.4,12.2,.4H57.8c6.54,0,11.9,5.54,11.9,12.31V59.9Z"/><path class="w" d="M69.7,59.87c0,6.77-5.35,12.3-11.9,12.3H12.2c-6.54,0-11.9-5.54-11.9-12.3V12.7C.3,5.94,5.65,.4,12.2,.4H57.8c6.54,0,11.9,5.54,11.9,12.3V59.87Z"/><path class="ed" d="M69.7,59.84c0,6.76-5.35,12.3-11.9,12.3H12.2c-6.54,0-11.9-5.53-11.9-12.3V12.7C.3,5.93,5.65,.4,12.2,.4H57.8c6.54,0,11.9,5.53,11.9,12.3V59.84Z"/><path class="cs" d="M69.7,59.81c0,6.76-5.35,12.29-11.9,12.29H12.2c-6.54,0-11.9-5.53-11.9-12.29V12.69C.3,5.93,5.65,.4,12.2,.4H57.8c6.54,0,11.9,5.53,11.9,12.29V59.81Z"/><path class="cl" d="M69.7,59.78c0,6.76-5.35,12.29-11.9,12.29H12.2c-6.54,0-11.9-5.53-11.9-12.29V12.69C.3,5.93,5.65,.4,12.2,.4H57.8c6.54,0,11.9,5.53,11.9,12.29V59.78Z"/><path class="fn" d="M69.7,59.76c0,6.75-5.35,12.28-11.9,12.28H12.2c-6.54,0-11.9-5.53-11.9-12.28V12.68C.3,5.93,5.65,.4,12.2,.4H57.8c6.54,0,11.9,5.53,11.9,12.28V59.76Z"/><path class="gd" d="M69.7,59.73c0,6.75-5.35,12.27-11.9,12.27H12.2c-6.54,0-11.9-5.52-11.9-12.27V12.67C.3,5.92,5.65,.4,12.2,.4H57.8c6.54,0,11.9,5.52,11.9,12.28V59.73Z"/><path class="gu" d="M69.7,59.7c0,6.75-5.35,12.27-11.9,12.27H12.2c-6.54,0-11.9-5.52-11.9-12.27V12.67C.3,5.92,5.65,.4,12.2,.4H57.8c6.54,0,11.9,5.52,11.9,12.27V59.7Z"/><path class="hx" d="M69.7,59.67c0,6.74-5.35,12.26-11.9,12.26H12.2c-6.54,0-11.9-5.52-11.9-12.26V12.66C.3,5.92,5.65,.4,12.2,.4H57.8c6.54,0,11.9,5.52,11.9,12.26V59.67Z"/><path class="hy" d="M69.7,59.64c0,6.74-5.35,12.26-11.9,12.26H12.2c-6.54,0-11.9-5.52-11.9-12.26V12.66C.3,5.92,5.65,.4,12.2,.4H57.8c6.54,0,11.9,5.52,11.9,12.26V59.64Z"/><path class="bi" d="M69.7,59.61c0,6.74-5.35,12.25-11.9,12.25H12.2c-6.54,0-11.9-5.51-11.9-12.25V12.65C.3,5.91,5.65,.4,12.2,.4H57.8c6.54,0,11.9,5.51,11.9,12.25V59.61Z"/><path class="gq" d="M69.7,59.59c0,6.73-5.35,12.25-11.9,12.25H12.2c-6.54,0-11.9-5.51-11.9-12.25V12.65C.3,5.91,5.65,.4,12.2,.4H57.8c6.54,0,11.9,5.51,11.9,12.25V59.59Z"/><path class="a`" d="M69.7,59.56c0,6.73-5.35,12.24-11.9,12.24H12.2c-6.54,0-11.9-5.51-11.9-12.24V12.64C.3,5.91,5.65,.4,12.2,.4H57.8c6.54,0,11.9,5.51,11.9,12.24V59.56Z"/><path class="as" d="M69.7,59.53c0,6.73-5.35,12.23-11.9,12.23H12.2c-6.54,0-11.9-5.5-11.9-12.23V12.63C.3,5.91,5.65,.4,12.2,.4H57.8c6.54,0,11.9,5.51,11.9,12.23V59.53Z"/><path class="cq" d="M69.7,59.5c0,6.73-5.35,12.23-11.9,12.23H12.2c-6.54,0-11.9-5.5-11.9-12.23V12.63C.3,5.9,5.65,.4,12.2,.4H57.8c6.54,0,11.9,5.5,11.9,12.23V59.5Z"/><path class="be" d="M69.7,59.47c0,6.72-5.35,12.22-11.9,12.22H12.2c-6.54,0-11.9-5.5-11.9-12.22V12.62C.3,5.9,5.65,.4,12.2,.4H57.8c6.54,0,11.9,5.5,11.9,12.22V59.47Z"/><path class="s" d="M69.7,59.44c0,6.72-5.35,12.22-11.9,12.22H12.2c-6.54,0-11.9-5.5-11.9-12.22V12.62C.3,5.9,5.65,.4,12.2,.4H57.8c6.54,0,11.9,5.5,11.9,12.22V59.44Z"/><path class="fc" d="M69.7,59.41c0,6.72-5.35,12.21-11.9,12.21H12.2c-6.54,0-11.9-5.49-11.9-12.21V12.61C.3,5.89,5.65,.4,12.2,.4H57.8c6.54,0,11.9,5.49,11.9,12.21V59.41Z"/><path class="ei" d="M69.7,59.39c0,6.71-5.35,12.2-11.9,12.2H12.2c-6.54,0-11.9-5.49-11.9-12.2V12.6C.3,5.89,5.65,.4,12.2,.4H57.8c6.54,0,11.9,5.49,11.9,12.2V59.39Z"/><path class="gv" d="M69.7,59.36c0,6.71-5.35,12.2-11.9,12.2H12.2c-6.54,0-11.9-5.49-11.9-12.2V12.6C.3,5.89,5.65,.4,12.2,.4H57.8c6.54,0,11.9,5.49,11.9,12.2V59.36Z"/><path class="go" d="M69.7,59.33c0,6.71-5.35,12.19-11.9,12.19H12.2c-6.54,0-11.9-5.49-11.9-12.19V12.59C.3,5.89,5.65,.4,12.2,.4H57.8c6.54,0,11.9,5.49,11.9,12.19V59.33Z"/><path class="ci" d="M69.7,59.3c0,6.7-5.35,12.19-11.9,12.19H12.2c-6.54,0-11.9-5.48-11.9-12.19V12.59C.3,5.88,5.65,.4,12.2,.4H57.8c6.54,0,11.9,5.48,11.9,12.19V59.3Z"/><path class="dw" d="M69.7,59.27c0,6.7-5.35,12.18-11.9,12.18H12.2c-6.54,0-11.9-5.48-11.9-12.18V12.58C.3,5.88,5.65,.4,12.2,.4H57.8c6.54,0,11.9,5.48,11.9,12.18V59.27Z"/><path class="h" d="M69.7,59.24c0,6.7-5.35,12.17-11.9,12.17H12.2c-6.54,0-11.9-5.48-11.9-12.17V12.57C.3,5.88,5.65,.4,12.2,.4H57.8c6.54,0,11.9,5.48,11.9,12.17V59.24Z"/><path class="ee" d="M69.7,59.21c0,6.69-5.35,12.17-11.9,12.17H12.2c-6.54,0-11.9-5.48-11.9-12.17V12.57C.3,5.88,5.65,.4,12.2,.4H57.8c6.54,0,11.9,5.48,11.9,12.17V59.21Z"/><path class="at" d="M69.7,59.19c0,6.69-5.35,12.16-11.9,12.16H12.2c-6.54,0-11.9-5.47-11.9-12.16V12.56C.3,5.87,5.65,.4,12.2,.4H57.8c6.54,0,11.9,5.47,11.9,12.16V59.19Z"/><path class="gg" d="M69.7,59.16c0,6.69-5.35,12.16-11.9,12.16H12.2c-6.54,0-11.9-5.47-11.9-12.16V12.56C.3,5.87,5.65,.4,12.2,.4H57.8c6.54,0,11.9,5.47,11.9,12.16V59.16Z"/><path class="hq" d="M69.7,59.13c0,6.68-5.35,12.15-11.9,12.15H12.2c-6.54,0-11.9-5.47-11.9-12.15V12.55C.3,5.87,5.65,.4,12.2,.4H57.8c6.54,0,11.9,5.47,11.9,12.15V59.13Z"/><path class="bx" d="M69.7,59.1c0,6.68-5.35,12.14-11.9,12.14H12.2c-6.54,0-11.9-5.47-11.9-12.14V12.55C.3,5.87,5.65,.4,12.2,.4H57.8c6.54,0,11.9,5.47,11.9,12.15V59.1Z"/><path class="ca" d="M69.7,59.07c0,6.68-5.35,12.14-11.9,12.14H12.2c-6.54,0-11.9-5.46-11.9-12.14V12.54C.3,5.86,5.65,.4,12.2,.4H57.8c6.54,0,11.9,5.46,11.9,12.14V59.07Z"/><path class="fx" d="M69.7,59.04c0,6.67-5.35,12.13-11.9,12.13H12.2c-6.54,0-11.9-5.46-11.9-12.13V12.53C.3,5.86,5.65,.4,12.2,.4H57.8c6.54,0,11.9,5.46,11.9,12.13V59.04Z"/><path class="fh" d="M69.7,59.01c0,6.67-5.35,12.13-11.9,12.13H12.2c-6.54,0-11.9-5.46-11.9-12.13V12.53C.3,5.86,5.65,.4,12.2,.4H57.8c6.54,0,11.9,5.46,11.9,12.13V59.01Z"/><path class="aj" d="M69.7,58.99c0,6.67-5.35,12.12-11.9,12.12H12.2c-6.54,0-11.9-5.45-11.9-12.12V12.52C.3,5.85,5.65,.4,12.2,.4H57.8c6.54,0,11.9,5.45,11.9,12.12V58.99Z"/><path class="cy" d="M69.7,58.96c0,6.66-5.35,12.12-11.9,12.12H12.2c-6.54,0-11.9-5.45-11.9-12.12V12.52C.3,5.85,5.65,.4,12.2,.4H57.8c6.54,0,11.9,5.45,11.9,12.12V58.96Z"/><path class="q" d="M69.7,58.93c0,6.66-5.35,12.11-11.9,12.11H12.2c-6.54,0-11.9-5.45-11.9-12.11V12.51C.3,5.85,5.65,.4,12.2,.4H57.8c6.54,0,11.9,5.45,11.9,12.11V58.93Z"/><path class="bh" d="M69.7,58.9c0,6.66-5.35,12.1-11.9,12.1H12.2c-6.54,0-11.9-5.45-11.9-12.1V12.5C.3,5.85,5.65,.4,12.2,.4H57.8c6.54,0,11.9,5.45,11.9,12.1V58.9Z"/><path class="bw" d="M69.7,58.87c0,6.65-5.35,12.1-11.9,12.1H12.2c-6.54,0-11.9-5.44-11.9-12.1V12.5C.3,5.84,5.65,.4,12.2,.4H57.8c6.54,0,11.9,5.44,11.9,12.1V58.87Z"/><path class="ho" d="M69.7,58.84c0,6.65-5.35,12.09-11.9,12.09H12.2c-6.54,0-11.9-5.44-11.9-12.09V12.49C.3,5.84,5.65,.4,12.2,.4H57.8c6.54,0,11.9,5.44,11.9,12.09V58.84Z"/><path class="ad" d="M69.7,58.82c0,6.65-5.35,12.09-11.9,12.09H12.2c-6.54,0-11.9-5.44-11.9-12.09V12.49C.3,5.84,5.65,.4,12.2,.4H57.8c6.54,0,11.9,5.44,11.9,12.09V58.82Z"/><path class="de" d="M69.7,58.79c0,6.64-5.35,12.08-11.9,12.08H12.2c-6.54,0-11.9-5.44-11.9-12.08V12.48C.3,5.84,5.65,.4,12.2,.4H57.8c6.54,0,11.9,5.44,11.9,12.08V58.79Z"/><path class="hk" d="M69.7,58.76c0,6.64-5.35,12.07-11.9,12.07H12.2c-6.54,0-11.9-5.43-11.9-12.07V12.47C.3,5.83,5.65,.4,12.2,.4H57.8c6.54,0,11.9,5.43,11.9,12.07V58.76Z"/><path class="j" d="M69.7,58.73c0,6.64-5.35,12.07-11.9,12.07H12.2c-6.54,0-11.9-5.43-11.9-12.07V12.47C.3,5.83,5.65,.4,12.2,.4H57.8c6.54,0,11.9,5.43,11.9,12.07V58.73Z"/><path class="gb" d="M69.7,58.7c0,6.63-5.35,12.06-11.9,12.06H12.2c-6.54,0-11.9-5.43-11.9-12.06V12.46C.3,5.83,5.65,.4,12.2,.4H57.8c6.54,0,11.9,5.43,11.9,12.06V58.7Z"/><path class="fr" d="M69.7,58.67c0,6.63-5.35,12.06-11.9,12.06H12.2c-6.54,0-11.9-5.43-11.9-12.06V12.46C.3,5.83,5.65,.4,12.2,.4H57.8c6.54,0,11.9,5.43,11.9,12.06V58.67Z"/><path class="u" d="M69.7,58.64c0,6.63-5.35,12.05-11.9,12.05H12.2c-6.54,0-11.9-5.42-11.9-12.05V12.45C.3,5.82,5.65,.4,12.2,.4H57.8c6.54,0,11.9,5.42,11.9,12.05V58.64Z"/><path class="h`" d="M69.7,58.62c0,6.62-5.35,12.04-11.9,12.04H12.2c-6.54,0-11.9-5.42-11.9-12.04V12.44C.3,5.82,5.65,.4,12.2,.4H57.8c6.54,0,11.9,5.42,11.9,12.04V58.62Z"/><path class="dh" d="M69.7,58.59c0,6.62-5.35,12.04-11.9,12.04H12.2c-6.54,0-11.9-5.42-11.9-12.04V12.44C.3,5.82,5.65,.4,12.2,.4H57.8c6.54,0,11.9,5.42,11.9,12.04V58.59Z"/><path class="dr" d="M69.7,58.56c0,6.62-5.35,12.03-11.9,12.03H12.2c-6.54,0-11.9-5.41-11.9-12.03V12.43C.3,5.81,5.65,.4,12.2,.4H57.8c6.54,0,11.9,5.42,11.9,12.03V58.56Z"/><path class="ib" d="M69.7,58.53c0,6.61-5.35,12.03-11.9,12.03H12.2c-6.54,0-11.9-5.41-11.9-12.03V12.43C.3,5.81,5.65,.4,12.2,.4H57.8c6.54,0,11.9,5.41,11.9,12.03V58.53Z"/><path class="v" d="M69.7,58.5c0,6.61-5.35,12.02-11.9,12.02H12.2c-6.54,0-11.9-5.41-11.9-12.02V12.42C.3,5.81,5.65,.4,12.2,.4H57.8c6.54,0,11.9,5.41,11.9,12.02V58.5Z"/><path class="fv" d="M69.7,58.47c0,6.61-5.35,12.01-11.9,12.01H12.2c-6.54,0-11.9-5.41-11.9-12.01V12.42C.3,5.81,5.65,.4,12.2,.4H57.8c6.54,0,11.9,5.41,11.9,12.02V58.47Z"/><path class="fa" d="M69.7,58.44c0,6.61-5.35,12.01-11.9,12.01H12.2c-6.54,0-11.9-5.4-11.9-12.01V12.41C.3,5.8,5.65,.4,12.2,.4H57.8c6.54,0,11.9,5.4,11.9,12.01V58.44Z"/><path class="ba" d="M69.7,58.42c0,6.6-5.35,12-11.9,12H12.2c-6.54,0-11.9-5.4-11.9-12V12.4C.3,5.8,5.65,.4,12.2,.4H57.8c6.54,0,11.9,5.4,11.9,12V58.42Z"/><path class="ch" d="M69.7,58.39c0,6.6-5.35,12-11.9,12H12.2c-6.54,0-11.9-5.4-11.9-12V12.4C.3,5.8,5.65,.4,12.2,.4H57.8c6.54,0,11.9,5.4,11.9,12V58.39Z"/><path class="fs" d="M69.7,58.36c0,6.6-5.35,11.99-11.9,11.99H12.2c-6.54,0-11.9-5.4-11.9-11.99V12.39C.3,5.8,5.65,.4,12.2,.4H57.8c6.54,0,11.9,5.4,11.9,11.99V58.36Z"/><path class="du" d="M69.7,58.33c0,6.59-5.35,11.99-11.9,11.99H12.2c-6.54,0-11.9-5.39-11.9-11.99V12.39C.3,5.79,5.65,.4,12.2,.4H57.8c6.54,0,11.9,5.39,11.9,11.99V58.33Z"/><path class="dm" d="M69.7,58.3c0,6.59-5.35,11.98-11.9,11.98H12.2c-6.54,0-11.9-5.39-11.9-11.98V12.38C.3,5.79,5.65,.4,12.2,.4H57.8c6.54,0,11.9,5.39,11.9,11.98V58.3Z"/><path class="dy" d="M69.7,58.27c0,6.59-5.35,11.97-11.9,11.97H12.2c-6.54,0-11.9-5.39-11.9-11.97V12.37C.3,5.79,5.65,.4,12.2,.4H57.8c6.54,0,11.9,5.39,11.9,11.97V58.27Z"/><path class="ay" d="M69.7,58.24c0,6.58-5.35,11.97-11.9,11.97H12.2c-6.54,0-11.9-5.39-11.9-11.97V12.37C.3,5.79,5.65,.4,12.2,.4H57.8c6.54,0,11.9,5.39,11.9,11.97V58.24Z"/><path class="en" d="M69.7,58.22c0,6.58-5.35,11.96-11.9,11.96H12.2c-6.54,0-11.9-5.38-11.9-11.96V12.36C.3,5.78,5.65,.4,12.2,.4H57.8c6.54,0,11.9,5.38,11.9,11.96V58.22Z"/><path class="gi" d="M69.7,58.19c0,6.58-5.35,11.96-11.9,11.96H12.2c-6.54,0-11.9-5.38-11.9-11.96V12.36C.3,5.78,5.65,.4,12.2,.4H57.8c6.54,0,11.9,5.38,11.9,11.96V58.19Z"/><path class="cp" d="M69.7,58.16c0,6.57-5.35,11.95-11.9,11.95H12.2c-6.54,0-11.9-5.38-11.9-11.95V12.35C.3,5.78,5.65,.4,12.2,.4H57.8c6.54,0,11.9,5.38,11.9,11.95V58.16Z"/><path class="aa" d="M69.7,58.13c0,6.57-5.35,11.94-11.9,11.94H12.2c-6.54,0-11.9-5.37-11.9-11.94V12.34C.3,5.78,5.65,.4,12.2,.4H57.8c6.54,0,11.9,5.38,11.9,11.94V58.13Z"/><path class="do" d="M69.7,58.1c0,6.57-5.35,11.94-11.9,11.94H12.2c-6.54,0-11.9-5.37-11.9-11.94V12.34C.3,5.77,5.65,.4,12.2,.4H57.8c6.54,0,11.9,5.37,11.9,11.94V58.1Z"/><path class="ax" d="M69.7,58.07c0,6.56-5.35,11.93-11.9,11.93H12.2c-6.54,0-11.9-5.37-11.9-11.93V12.33C.3,5.77,5.65,.4,12.2,.4H57.8c6.54,0,11.9,5.37,11.9,11.93V58.07Z"/><path class="gx" d="M69.7,58.05c0,6.56-5.35,11.93-11.9,11.93H12.2c-6.54,0-11.9-5.37-11.9-11.93V12.33C.3,5.77,5.65,.4,12.2,.4H57.8c6.54,0,11.9,5.37,11.9,11.93V58.05Z"/><path class="aq" d="M69.7,58.02c0,6.56-5.35,11.92-11.9,11.92H12.2c-6.54,0-11.9-5.36-11.9-11.92V12.32C.3,5.76,5.65,.4,12.2,.4H57.8c6.54,0,11.9,5.36,11.9,11.92V58.02Z"/><path class="fi" d="M69.7,57.99c0,6.55-5.35,11.91-11.9,11.91H12.2c-6.54,0-11.9-5.36-11.9-11.91V12.32C.3,5.76,5.65,.4,12.2,.4H57.8c6.54,0,11.9,5.36,11.9,11.92V57.99Z"/><rect class="fy" x=".3" y=".4" width="69.4" height="69.47" rx="11.9" ry="11.9"/><rect class="fl" x=".3" y=".4" width="69.4" height="69.43" rx="11.9" ry="11.9"/><rect class="hg" x=".3" y=".4" width="69.4" height="69.4" rx="11.9" ry="11.9"/></g><rect class="fp" width="70" height="70" rx="12" ry="12"/><path class="co" d="M13.31,2H56.69c6.24,0,11.31,5.07,11.31,11.31V56.69c0,6.24-5.07,11.31-11.31,11.31H13.31c-6.24,0-11.31-5.07-11.31-11.31V13.31C2,7.07,7.07,2,13.31,2Z"/></g></g></g></g></svg>