<?xml version="1.0" encoding="UTF-8"?><svg xmlns="http://www.w3.org/2000/svg" viewBox="0 0 49.95 44"><defs><style>.f{fill:#51fff4;}</style></defs><g id="a"/><g id="b"><g id="c"><g id="d"><g id="e"><path class="f" d="M19.99,28.63l19.74,5.73h0c0,1.54,1.24,2.78,2.77,2.78h0c1.53,0,2.77-1.25,2.77-2.77v-8.44c2.76-1.3,4.67-4.11,4.67-7.36,0-2.17-.85-4.21-2.38-5.74-.67-.67-1.45-1.22-2.3-1.62V2.77C45.25,1.24,44.01,0,42.48,0h0c-1.53,0-2.77,1.25-2.77,2.77h0l-19.74,5.76v-1.66c0-1.54-1.25-2.8-2.8-2.8h-5.15c-1.54,0-2.8,1.25-2.8,2.8v1.94c-2.4,.14-4.64,1.14-6.36,2.85C1.01,13.53,0,15.99,0,18.6c0,5.4,4.4,9.79,9.79,9.79h1.85l.02,15.62h8.33v-15.37Zm-.02-18.5l19.74-5.75,.02,28.38-19.75-5.73V10.13Z"/></g></g></g></g></svg>